<?xml version="1.0" encoding="utf-8"?>
<!-- Generator: Adobe Illustrator 27.9.2, SVG Export Plug-In . SVG Version: 6.00 Build 0)  -->
<svg version="1.1" id="Layer_1" xmlns="http://www.w3.org/2000/svg" xmlns:xlink="http://www.w3.org/1999/xlink" x="0px" y="0px"
	 viewBox="0 0 43.64 82.46" style="enable-background:new 0 0 43.64 82.46;" xml:space="preserve">
<style type="text/css">
	.st0{fill:#FFFFFF;}
</style>
<g>
	<g>
		<g>
			<g>
				<g>
					<path class="st0" d="M40.69,82.46c-1.63,0-2.95-1.32-2.95-2.95c0-1.63,1.32-2.95,2.95-2.95c1.63,0,2.95,1.32,2.95,2.95
						C43.64,81.14,42.32,82.46,40.69,82.46z M40.69,77.88c-0.9,0-1.63,0.73-1.63,1.63c0,0.9,0.73,1.63,1.63,1.63
						c0.9,0,1.63-0.73,1.63-1.63C42.32,78.61,41.59,77.88,40.69,77.88z"/>
				</g>
				<g>
					<path class="st0" d="M31.71,68.41c-1.63,0-2.95-1.32-2.95-2.95c0-1.63,1.32-2.95,2.95-2.95c1.63,0,2.95,1.32,2.95,2.95
						C34.66,67.08,33.33,68.41,31.71,68.41z M31.71,63.82c-0.9,0-1.63,0.73-1.63,1.63c0,0.9,0.73,1.63,1.63,1.63
						c0.9,0,1.63-0.73,1.63-1.63C33.34,64.55,32.61,63.82,31.71,63.82z"/>
				</g>
				<g>
					<path class="st0" d="M2.95,71.12C1.32,71.12,0,69.79,0,68.17c0-1.63,1.32-2.95,2.95-2.95c1.63,0,2.95,1.32,2.95,2.95
						C5.9,69.79,4.58,71.12,2.95,71.12z M2.95,66.53c-0.9,0-1.63,0.73-1.63,1.63c0,0.9,0.73,1.63,1.63,1.63
						c0.9,0,1.63-0.73,1.63-1.63C4.58,67.27,3.85,66.53,2.95,66.53z"/>
				</g>
				<g>
					<path class="st0" d="M17.03,47.76c-1.63,0-2.95-1.32-2.95-2.95c0-1.63,1.32-2.95,2.95-2.95c1.63,0,2.95,1.32,2.95,2.95
						C19.98,46.44,18.65,47.76,17.03,47.76z M17.03,43.18c-0.9,0-1.63,0.73-1.63,1.63c0,0.9,0.73,1.63,1.63,1.63
						c0.9,0,1.63-0.73,1.63-1.63C18.66,43.91,17.93,43.18,17.03,43.18z"/>
				</g>
				<g>
					<path class="st0" d="M18.31,33.58c-1.63,0-2.95-1.32-2.95-2.95c0-1.63,1.32-2.95,2.95-2.95c1.63,0,2.95,1.32,2.95,2.95
						C21.26,32.25,19.94,33.58,18.31,33.58z M18.31,28.99c-0.9,0-1.63,0.73-1.63,1.63c0,0.9,0.73,1.63,1.63,1.63
						c0.9,0,1.63-0.73,1.63-1.63C19.95,29.73,19.21,28.99,18.31,28.99z"/>
				</g>
				<g>
					<path class="st0" d="M16.02,5.9c-1.63,0-2.95-1.32-2.95-2.95c0-1.63,1.32-2.95,2.95-2.95c1.63,0,2.95,1.32,2.95,2.95
						C18.97,4.58,17.65,5.9,16.02,5.9z M16.02,1.32c-0.9,0-1.63,0.73-1.63,1.63c0,0.9,0.73,1.63,1.63,1.63
						c0.9,0,1.63-0.73,1.63-1.63C17.66,2.05,16.92,1.32,16.02,1.32z"/>
				</g>
			</g>
			<g>
				<g>
					
						<rect x="16.68" y="5.2" transform="matrix(0.9982 -0.0598 0.0598 0.9982 -0.9761 1.048)" class="st0" width="0.66" height="23.24"/>
				</g>
				<g>
					
						<rect x="12.53" y="37.35" transform="matrix(0.0728 -0.9973 0.9973 0.0728 -21.4665 52.2695)" class="st0" width="9.7" height="0.66"/>
				</g>
				<g>
					
						<rect x="-1.7" y="55.93" transform="matrix(0.4929 -0.8701 0.8701 0.4929 -44.0294 36.9722)" class="st0" width="22.8" height="0.66"/>
				</g>
				<g>
					
						<rect x="24.02" y="44.77" transform="matrix(0.8164 -0.5775 0.5775 0.8164 -27.3758 24.1882)" class="st0" width="0.66" height="20.75"/>
				</g>
				<g>
					
						<rect x="35.91" y="66.4" transform="matrix(0.8493 -0.5279 0.5279 0.8493 -32.787 30.0526)" class="st0" width="0.66" height="12.1"/>
				</g>
			</g>
		</g>
		<circle class="st0" cx="40.69" cy="79.51" r="2.75"/>
		<circle class="st0" cx="31.71" cy="65.46" r="2.75"/>
		<circle class="st0" cx="2.95" cy="68.17" r="2.75"/>
		<circle class="st0" cx="17.03" cy="44.81" r="2.75"/>
		<circle class="st0" cx="18.31" cy="30.63" r="2.75"/>
		<path class="st0" d="M18.77,2.95c0-1.52-1.23-2.75-2.75-2.75c-1.52,0-2.75,1.23-2.75,2.75c0,1.52,1.23,2.75,2.75,2.75
			C17.54,5.7,18.77,4.47,18.77,2.95z"/>
		<g>
			
				<rect x="16.68" y="5.2" transform="matrix(0.9982 -0.0598 0.0598 0.9982 -0.9761 1.048)" class="st0" width="0.66" height="23.24"/>
		</g>
		<g>
			
				<rect x="12.53" y="37.35" transform="matrix(0.0728 -0.9973 0.9973 0.0728 -21.4665 52.2695)" class="st0" width="9.7" height="0.66"/>
		</g>
		<g>
			
				<rect x="-1.7" y="55.93" transform="matrix(0.4929 -0.8701 0.8701 0.4929 -44.0294 36.9722)" class="st0" width="22.8" height="0.66"/>
		</g>
		<g>
			
				<rect x="24.02" y="44.77" transform="matrix(0.8164 -0.5775 0.5775 0.8164 -27.3758 24.1882)" class="st0" width="0.66" height="20.75"/>
		</g>
		<g>
			
				<rect x="35.91" y="66.4" transform="matrix(0.8493 -0.5279 0.5279 0.8493 -32.787 30.0526)" class="st0" width="0.66" height="12.1"/>
		</g>
	</g>
</g>
</svg>
