<?xml version="1.0" encoding="utf-8"?>
<!-- Generator: Adobe Illustrator 27.9.2, SVG Export Plug-In . SVG Version: 6.00 Build 0)  -->
<svg version="1.1" id="Layer_1" xmlns="http://www.w3.org/2000/svg" xmlns:xlink="http://www.w3.org/1999/xlink" x="0px" y="0px"
	 viewBox="0 0 78.61 50.87" style="enable-background:new 0 0 78.61 50.87;" xml:space="preserve">
<style type="text/css">
	.st0{fill:#FFFFFF;}
</style>
<g>
	<g>
		<g>
			<g>
				<g>
					<path class="st0" d="M12.93,30.12c-1.63,0-2.95-1.32-2.95-2.95c0-1.63,1.32-2.95,2.95-2.95c1.63,0,2.95,1.32,2.95,2.95
						C15.88,28.8,14.55,30.12,12.93,30.12z M12.93,25.54c-0.9,0-1.63,0.73-1.63,1.63s0.73,1.63,1.63,1.63c0.9,0,1.63-0.73,1.63-1.63
						S13.83,25.54,12.93,25.54z"/>
				</g>
				<g>
					<path class="st0" d="M19.35,26.1c-1.63,0-2.95-1.32-2.95-2.95c0-1.63,1.32-2.95,2.95-2.95c1.63,0,2.95,1.32,2.95,2.95
						C22.3,24.77,20.97,26.1,19.35,26.1z M19.35,21.51c-0.9,0-1.63,0.73-1.63,1.63c0,0.9,0.73,1.63,1.63,1.63
						c0.9,0,1.63-0.73,1.63-1.63C20.98,22.25,20.25,21.51,19.35,21.51z"/>
				</g>
				<g>
					<path class="st0" d="M15.22,7.56c-1.63,0-2.95-1.32-2.95-2.95c0-1.63,1.32-2.95,2.95-2.95c1.63,0,2.95,1.32,2.95,2.95
						C18.17,6.24,16.85,7.56,15.22,7.56z M15.22,2.98c-0.9,0-1.63,0.73-1.63,1.63s0.73,1.63,1.63,1.63c0.9,0,1.63-0.73,1.63-1.63
						S16.12,2.98,15.22,2.98z"/>
				</g>
				<g>
					<path class="st0" d="M23.11,15.93c-1.63,0-2.95-1.32-2.95-2.95c0-1.63,1.32-2.95,2.95-2.95c1.63,0,2.95,1.32,2.95,2.95
						C26.06,14.61,24.73,15.93,23.11,15.93z M23.11,11.35c-0.9,0-1.63,0.73-1.63,1.63c0,0.9,0.73,1.63,1.63,1.63
						c0.9,0,1.63-0.73,1.63-1.63C24.74,12.08,24.01,11.35,23.11,11.35z"/>
				</g>
				<g>
					<path class="st0" d="M36.15,5.9c-1.63,0-2.95-1.32-2.95-2.95C33.2,1.32,34.52,0,36.15,0c1.63,0,2.95,1.32,2.95,2.95
						C39.1,4.58,37.78,5.9,36.15,5.9z M36.15,1.32c-0.9,0-1.63,0.73-1.63,1.63c0,0.9,0.73,1.63,1.63,1.63c0.9,0,1.63-0.73,1.63-1.63
						C37.79,2.05,37.05,1.32,36.15,1.32z"/>
				</g>
				<g>
					<path class="st0" d="M42.43,6.96c-1.63,0-2.95-1.32-2.95-2.95s1.32-2.95,2.95-2.95c1.63,0,2.95,1.32,2.95,2.95
						S44.05,6.96,42.43,6.96z M42.43,2.37c-0.9,0-1.63,0.73-1.63,1.63s0.73,1.63,1.63,1.63c0.9,0,1.63-0.73,1.63-1.63
						S43.33,2.37,42.43,2.37z"/>
				</g>
				<g>
					<path class="st0" d="M43.83,13.03c-1.63,0-2.95-1.32-2.95-2.95c0-1.63,1.32-2.95,2.95-2.95c1.63,0,2.95,1.32,2.95,2.95
						C46.78,11.71,45.46,13.03,43.83,13.03z M43.83,8.45c-0.9,0-1.63,0.73-1.63,1.63c0,0.9,0.73,1.63,1.63,1.63
						c0.9,0,1.63-0.73,1.63-1.63C45.47,9.18,44.73,8.45,43.83,8.45z"/>
				</g>
				<g>
					<path class="st0" d="M38.44,24.57c-1.63,0-2.95-1.32-2.95-2.95c0-1.63,1.32-2.95,2.95-2.95c1.63,0,2.95,1.32,2.95,2.95
						C41.39,23.25,40.07,24.57,38.44,24.57z M38.44,19.99c-0.9,0-1.63,0.73-1.63,1.63c0,0.9,0.73,1.63,1.63,1.63
						c0.9,0,1.63-0.73,1.63-1.63C40.08,20.72,39.35,19.99,38.44,19.99z"/>
				</g>
				<g>
					<path class="st0" d="M60.24,31.49c-1.63,0-2.95-1.32-2.95-2.95c0-1.63,1.32-2.95,2.95-2.95c1.63,0,2.95,1.32,2.95,2.95
						C63.19,30.17,61.87,31.49,60.24,31.49z M60.24,26.91c-0.9,0-1.63,0.73-1.63,1.63c0,0.9,0.73,1.63,1.63,1.63
						c0.9,0,1.63-0.73,1.63-1.63C61.87,27.64,61.14,26.91,60.24,26.91z"/>
				</g>
				<g>
					<path class="st0" d="M51.77,15.93c-1.63,0-2.95-1.32-2.95-2.95c0-1.63,1.32-2.95,2.95-2.95c1.63,0,2.95,1.32,2.95,2.95
						C54.72,14.61,53.39,15.93,51.77,15.93z M51.77,11.35c-0.9,0-1.63,0.73-1.63,1.63c0,0.9,0.73,1.63,1.63,1.63
						c0.9,0,1.63-0.73,1.63-1.63C53.4,12.08,52.67,11.35,51.77,11.35z"/>
				</g>
				<g>
					<path class="st0" d="M75.66,50.87c-1.63,0-2.95-1.32-2.95-2.95c0-1.63,1.32-2.95,2.95-2.95c1.63,0,2.95,1.32,2.95,2.95
						C78.61,49.54,77.28,50.87,75.66,50.87z M75.66,46.28c-0.9,0-1.63,0.73-1.63,1.63c0,0.9,0.73,1.63,1.63,1.63
						c0.9,0,1.63-0.73,1.63-1.63C77.29,47.02,76.56,46.28,75.66,46.28z"/>
				</g>
				<g>
					<path class="st0" d="M37.31,37.47c-1.63,0-2.95-1.32-2.95-2.95c0-1.63,1.32-2.95,2.95-2.95c1.63,0,2.95,1.32,2.95,2.95
						C40.26,36.14,38.94,37.47,37.31,37.47z M37.31,32.88c-0.9,0-1.63,0.73-1.63,1.63c0,0.9,0.73,1.63,1.63,1.63
						c0.9,0,1.63-0.73,1.63-1.63C38.95,33.62,38.21,32.88,37.31,32.88z"/>
				</g>
				<g>
					<path class="st0" d="M2.95,36.08C1.32,36.08,0,34.75,0,33.13c0-1.63,1.32-2.95,2.95-2.95c1.63,0,2.95,1.32,2.95,2.95
						C5.9,34.75,4.58,36.08,2.95,36.08z M2.95,31.49c-0.9,0-1.63,0.73-1.63,1.63s0.73,1.63,1.63,1.63c0.9,0,1.63-0.73,1.63-1.63
						S3.85,31.49,2.95,31.49z"/>
				</g>
			</g>
			<g>
				<g>
					<polygon class="st0" points="5,32.1 4.67,31.53 10.76,28.01 11.09,28.58 					"/>
				</g>
				<g>
					
						<rect x="14.73" y="24.99" transform="matrix(0.8469 -0.5318 0.5318 0.8469 -10.9775 12.5109)" class="st0" width="3.01" height="0.66"/>
				</g>
				<g>
					
						<rect x="18.14" y="17.75" transform="matrix(0.3499 -0.9368 0.9368 0.3499 -3.1084 31.6818)" class="st0" width="6.26" height="0.66"/>
				</g>
				<g>
					
						<rect x="18.82" y="5.34" transform="matrix(0.6948 -0.7192 0.7192 0.6948 -0.4924 16.4568)" class="st0" width="0.66" height="6.94"/>
				</g>
				<g>
					<polygon class="st0" points="17.45,4.33 17.41,3.68 33.84,2.62 33.88,3.28 					"/>
				</g>
				<g>
					
						<rect x="38.97" y="2.51" transform="matrix(0.0808 -0.9967 0.9967 0.0808 32.7341 42.3064)" class="st0" width="0.66" height="1.79"/>
				</g>
				<g>
					
						<rect x="42.62" y="6.25" transform="matrix(0.9747 -0.2237 0.2237 0.9747 -0.4967 9.788)" class="st0" width="0.66" height="1.67"/>
				</g>
				<g>
					<polygon class="st0" points="49.53,12.44 45.87,11.21 46.08,10.59 49.74,11.82 					"/>
				</g>
				<g>
					<polygon class="st0" points="40.55,20.64 40.18,20.1 49.52,13.7 49.89,14.24 					"/>
				</g>
				<g>
					
						<rect x="33.56" y="27.73" transform="matrix(0.104 -0.9946 0.9946 0.104 5.9112 62.6844)" class="st0" width="8.37" height="0.66"/>
				</g>
				<g>
					
						<rect x="55.72" y="14.16" transform="matrix(0.8837 -0.468 0.468 0.8837 -3.1856 28.6431)" class="st0" width="0.66" height="13.14"/>
				</g>
				<g>
					
						<rect x="67.52" y="28.21" transform="matrix(0.7801 -0.6256 0.6256 0.7801 -9.0435 50.8702)" class="st0" width="0.66" height="20.18"/>
				</g>
			</g>
		</g>
		<circle class="st0" cx="12.93" cy="27.17" r="2.75"/>
		<circle class="st0" cx="19.35" cy="23.15" r="2.75"/>
		<path class="st0" d="M17.97,4.61c0-1.52-1.23-2.75-2.75-2.75c-1.52,0-2.75,1.23-2.75,2.75s1.23,2.75,2.75,2.75
			C16.74,7.36,17.97,6.13,17.97,4.61z"/>
		<path class="st0" d="M25.86,12.98c0-1.52-1.23-2.75-2.75-2.75s-2.75,1.23-2.75,2.75c0,1.52,1.23,2.75,2.75,2.75
			S25.86,14.5,25.86,12.98z"/>
		<circle class="st0" cx="36.15" cy="2.95" r="2.75"/>
		<circle class="st0" cx="42.43" cy="4.01" r="2.75"/>
		<circle class="st0" cx="43.83" cy="10.08" r="2.75"/>
		<path class="st0" d="M41.2,21.62c0-1.52-1.23-2.75-2.75-2.75c-1.52,0-2.75,1.23-2.75,2.75c0,1.52,1.23,2.75,2.75,2.75
			C39.96,24.37,41.2,23.14,41.2,21.62z"/>
		<path class="st0" d="M62.99,28.54c0-1.52-1.23-2.75-2.75-2.75c-1.52,0-2.75,1.23-2.75,2.75s1.23,2.75,2.75,2.75
			C61.76,31.29,62.99,30.06,62.99,28.54z"/>
		<path class="st0" d="M54.52,12.98c0-1.52-1.23-2.75-2.75-2.75c-1.52,0-2.75,1.23-2.75,2.75c0,1.52,1.23,2.75,2.75,2.75
			C53.29,15.73,54.52,14.5,54.52,12.98z"/>
		<path class="st0" d="M78.41,47.92c0-1.52-1.23-2.75-2.75-2.75c-1.52,0-2.75,1.23-2.75,2.75c0,1.52,1.23,2.75,2.75,2.75
			C77.17,50.67,78.41,49.44,78.41,47.92z"/>
		<circle class="st0" cx="37.31" cy="34.52" r="2.75"/>
		<circle class="st0" cx="2.95" cy="33.13" r="2.75"/>
		<g>
			<polygon class="st0" points="5,32.1 4.67,31.53 10.76,28.01 11.09,28.58 			"/>
		</g>
		<g>
			
				<rect x="14.73" y="24.99" transform="matrix(0.8469 -0.5318 0.5318 0.8469 -10.9775 12.5109)" class="st0" width="3.01" height="0.66"/>
		</g>
		<g>
			
				<rect x="18.14" y="17.75" transform="matrix(0.3499 -0.9368 0.9368 0.3499 -3.1084 31.6818)" class="st0" width="6.26" height="0.66"/>
		</g>
		<g>
			
				<rect x="18.82" y="5.34" transform="matrix(0.6948 -0.7192 0.7192 0.6948 -0.4924 16.4568)" class="st0" width="0.66" height="6.94"/>
		</g>
		<g>
			<polygon class="st0" points="17.45,4.33 17.41,3.68 33.84,2.62 33.88,3.28 			"/>
		</g>
		<g>
			
				<rect x="38.97" y="2.51" transform="matrix(0.0808 -0.9967 0.9967 0.0808 32.7341 42.3064)" class="st0" width="0.66" height="1.79"/>
		</g>
		<g>
			
				<rect x="42.62" y="6.25" transform="matrix(0.9747 -0.2237 0.2237 0.9747 -0.4967 9.788)" class="st0" width="0.66" height="1.67"/>
		</g>
		<g>
			<polygon class="st0" points="49.53,12.44 45.87,11.21 46.08,10.59 49.74,11.82 			"/>
		</g>
		<g>
			<polygon class="st0" points="40.55,20.64 40.18,20.1 49.52,13.7 49.89,14.24 			"/>
		</g>
		<g>
			
				<rect x="33.56" y="27.73" transform="matrix(0.104 -0.9946 0.9946 0.104 5.9112 62.6844)" class="st0" width="8.37" height="0.66"/>
		</g>
		<g>
			
				<rect x="55.72" y="14.16" transform="matrix(0.8837 -0.468 0.468 0.8837 -3.1856 28.6431)" class="st0" width="0.66" height="13.14"/>
		</g>
		<g>
			
				<rect x="67.52" y="28.21" transform="matrix(0.7801 -0.6256 0.6256 0.7801 -9.0435 50.8702)" class="st0" width="0.66" height="20.18"/>
		</g>
	</g>
</g>
</svg>
