<?xml version="1.0" encoding="utf-8"?>
<!-- Generator: Adobe Illustrator 27.9.2, SVG Export Plug-In . SVG Version: 6.00 Build 0)  -->
<svg version="1.1" id="Layer_1" xmlns="http://www.w3.org/2000/svg" xmlns:xlink="http://www.w3.org/1999/xlink" x="0px" y="0px"
	 viewBox="0 0 79.84 61.14" style="enable-background:new 0 0 79.84 61.14;" xml:space="preserve">
<style type="text/css">
	.st0{fill:#FFFFFF;}
</style>
<g>
	<g>
		<g>
			<g>
				<g>
					<path class="st0" d="M11.19,38.12c-1.63,0-2.95-1.32-2.95-2.95c0-1.63,1.32-2.95,2.95-2.95c1.63,0,2.95,1.32,2.95,2.95
						C14.14,36.8,12.82,38.12,11.19,38.12z M11.19,33.54c-0.9,0-1.63,0.73-1.63,1.63c0,0.9,0.73,1.63,1.63,1.63
						c0.9,0,1.63-0.73,1.63-1.63C12.82,34.27,12.09,33.54,11.19,33.54z"/>
				</g>
				<g>
					<path class="st0" d="M40.2,31.24c-1.63,0-2.95-1.32-2.95-2.95c0-1.63,1.32-2.95,2.95-2.95c1.63,0,2.95,1.32,2.95,2.95
						C43.15,29.92,41.82,31.24,40.2,31.24z M40.2,26.66c-0.9,0-1.63,0.73-1.63,1.63c0,0.9,0.73,1.63,1.63,1.63
						c0.9,0,1.63-0.73,1.63-1.63C41.83,27.39,41.1,26.66,40.2,26.66z"/>
				</g>
				<g>
					<path class="st0" d="M76.89,5.9c-1.63,0-2.95-1.32-2.95-2.95c0-1.63,1.32-2.95,2.95-2.95c1.63,0,2.95,1.32,2.95,2.95
						C79.84,4.58,78.52,5.9,76.89,5.9z M76.89,1.32c-0.9,0-1.63,0.73-1.63,1.63c0,0.9,0.73,1.63,1.63,1.63
						c0.9,0,1.63-0.73,1.63-1.63C78.53,2.05,77.8,1.32,76.89,1.32z"/>
				</g>
				<g>
					<path class="st0" d="M76.32,15.23c-1.63,0-2.95-1.32-2.95-2.95c0-1.63,1.32-2.95,2.95-2.95c1.63,0,2.95,1.32,2.95,2.95
						C79.27,13.9,77.95,15.23,76.32,15.23z M76.32,10.64c-0.9,0-1.63,0.73-1.63,1.63c0,0.9,0.73,1.63,1.63,1.63
						c0.9,0,1.63-0.73,1.63-1.63C77.95,11.38,77.22,10.64,76.32,10.64z"/>
				</g>
				<g>
					<path class="st0" d="M61.94,61.14c-1.63,0-2.95-1.32-2.95-2.95c0-1.63,1.32-2.95,2.95-2.95c1.63,0,2.95,1.32,2.95,2.95
						C64.89,59.82,63.57,61.14,61.94,61.14z M61.94,56.56c-0.9,0-1.63,0.73-1.63,1.63c0,0.9,0.73,1.63,1.63,1.63
						c0.9,0,1.63-0.73,1.63-1.63C63.58,57.29,62.84,56.56,61.94,56.56z"/>
				</g>
				<g>
					<path class="st0" d="M64.93,54.46c-1.63,0-2.95-1.32-2.95-2.95c0-1.63,1.32-2.95,2.95-2.95c1.63,0,2.95,1.32,2.95,2.95
						C67.88,53.14,66.56,54.46,64.93,54.46z M64.93,49.88c-0.9,0-1.63,0.73-1.63,1.63c0,0.9,0.73,1.63,1.63,1.63
						c0.9,0,1.63-0.73,1.63-1.63C66.56,50.61,65.83,49.88,64.93,49.88z"/>
				</g>
				<g>
					<path class="st0" d="M47.92,57.8c-1.63,0-2.95-1.32-2.95-2.95c0-1.63,1.32-2.95,2.95-2.95c1.63,0,2.95,1.32,2.95,2.95
						C50.87,56.48,49.54,57.8,47.92,57.8z M47.92,53.22c-0.9,0-1.63,0.73-1.63,1.63c0,0.9,0.73,1.63,1.63,1.63
						c0.9,0,1.63-0.73,1.63-1.63C49.55,53.95,48.82,53.22,47.92,53.22z"/>
				</g>
				<g>
					<path class="st0" d="M25.31,33.54c-1.63,0-2.95-1.32-2.95-2.95c0-1.63,1.32-2.95,2.95-2.95c1.63,0,2.95,1.32,2.95,2.95
						C28.27,32.21,26.94,33.54,25.31,33.54z M25.31,28.95c-0.9,0-1.63,0.73-1.63,1.63c0,0.9,0.73,1.63,1.63,1.63
						c0.9,0,1.63-0.73,1.63-1.63C26.95,29.68,26.22,28.95,25.31,28.95z"/>
				</g>
				<g>
					<path class="st0" d="M31.19,53.87c-1.63,0-2.95-1.32-2.95-2.95c0-1.63,1.32-2.95,2.95-2.95c1.63,0,2.95,1.32,2.95,2.95
						C34.14,52.55,32.82,53.87,31.19,53.87z M31.19,49.29c-0.9,0-1.63,0.73-1.63,1.63c0,0.9,0.73,1.63,1.63,1.63
						c0.9,0,1.63-0.73,1.63-1.63C32.82,50.02,32.09,49.29,31.19,49.29z"/>
				</g>
				<g>
					<path class="st0" d="M25.31,51.17c-1.63,0-2.95-1.32-2.95-2.95c0-1.63,1.32-2.95,2.95-2.95c1.63,0,2.95,1.32,2.95,2.95
						C28.27,49.84,26.94,51.17,25.31,51.17z M25.31,46.58c-0.9,0-1.63,0.73-1.63,1.63c0,0.9,0.73,1.63,1.63,1.63
						c0.9,0,1.63-0.73,1.63-1.63C26.95,47.31,26.22,46.58,25.31,46.58z"/>
				</g>
				<g>
					<path class="st0" d="M15.77,46.08c-1.63,0-2.95-1.32-2.95-2.95c0-1.63,1.32-2.95,2.95-2.95c1.63,0,2.95,1.32,2.95,2.95
						C18.72,44.76,17.4,46.08,15.77,46.08z M15.77,41.5c-0.9,0-1.63,0.73-1.63,1.63c0,0.9,0.73,1.63,1.63,1.63
						c0.9,0,1.63-0.73,1.63-1.63C17.41,42.23,16.67,41.5,15.77,41.5z"/>
				</g>
				<g>
					<path class="st0" d="M2.95,38.12C1.32,38.12,0,36.8,0,35.17c0-1.63,1.32-2.95,2.95-2.95s2.95,1.32,2.95,2.95
						C5.9,36.8,4.58,38.12,2.95,38.12z M2.95,33.54c-0.9,0-1.63,0.73-1.63,1.63c0,0.9,0.73,1.63,1.63,1.63s1.63-0.73,1.63-1.63
						C4.59,34.27,3.85,33.54,2.95,33.54z"/>
				</g>
			</g>
			<g>
				<g>
					
						<rect x="6.73" y="32.66" transform="matrix(0.0171 -0.9999 0.9999 0.0171 -27.6227 41.0358)" class="st0" width="0.66" height="3.82"/>
				</g>
				<g>
					
						<rect x="13.09" y="32.49" transform="matrix(0.9519 -0.3065 0.3065 0.9519 -9.1799 7.1658)" class="st0" width="10.27" height="0.66"/>
				</g>
				<g>
					
						<rect x="8.87" y="34.13" transform="matrix(0.519 -0.8548 0.8548 0.519 -29.2558 26.815)" class="st0" width="0.66" height="10.55"/>
				</g>
				<g>
					
						<rect x="20.17" y="42.64" transform="matrix(0.463 -0.8864 0.8864 0.463 -29.5539 42.7403)" class="st0" width="0.66" height="6.24"/>
				</g>
				<g>
					
						<rect x="27.9" y="48.67" transform="matrix(0.4043 -0.9146 0.9146 0.4043 -28.5612 55.3768)" class="st0" width="0.66" height="1.89"/>
				</g>
				<g>
					
						<rect x="39.18" y="46.73" transform="matrix(0.2027 -0.9792 0.9792 0.2027 -20.4405 80.9745)" class="st0" width="0.66" height="12.63"/>
				</g>
				<g>
					
						<rect x="54.6" y="51.61" transform="matrix(0.2073 -0.9783 0.9783 0.2073 -11.759 98.5483)" class="st0" width="0.66" height="9.84"/>
				</g>
				<g>
					<polygon class="st0" points="63.33,56.3 62.73,56.05 63.78,53.52 64.39,53.77 					"/>
				</g>
				<g>
					<polygon class="st0" points="66.05,49.46 65.42,49.28 75.4,14.39 76.03,14.58 					"/>
				</g>
				<g>
					<rect x="76.57" y="5.24" class="st0" width="0.66" height="4.82"/>
				</g>
				<g>
					
						<rect x="40.8" y="20.02" transform="matrix(0.9094 -0.416 0.416 0.9094 -3.182 26.0874)" class="st0" width="34.96" height="0.66"/>
				</g>
				<g>
					
						<rect x="27.53" y="29.37" transform="matrix(0.9856 -0.1692 0.1692 0.9856 -4.5516 5.9739)" class="st0" width="10.51" height="0.66"/>
				</g>
			</g>
		</g>
		<circle class="st0" cx="11.19" cy="35.17" r="2.75"/>
		<path class="st0" d="M42.95,28.29c0-1.52-1.23-2.75-2.75-2.75c-1.52,0-2.75,1.23-2.75,2.75c0,1.52,1.23,2.75,2.75,2.75
			C41.71,31.04,42.95,29.81,42.95,28.29z"/>
		<path class="st0" d="M79.65,2.95c0-1.52-1.23-2.75-2.75-2.75c-1.52,0-2.75,1.23-2.75,2.75c0,1.52,1.23,2.75,2.75,2.75
			C78.41,5.7,79.65,4.47,79.65,2.95z"/>
		<path class="st0" d="M79.07,12.28c0-1.52-1.23-2.75-2.75-2.75c-1.52,0-2.75,1.23-2.75,2.75c0,1.52,1.23,2.75,2.75,2.75
			C77.84,15.03,79.07,13.8,79.07,12.28z"/>
		<path class="st0" d="M64.69,58.19c0-1.52-1.23-2.75-2.75-2.75c-1.52,0-2.75,1.23-2.75,2.75s1.23,2.75,2.75,2.75
			C63.46,60.94,64.69,59.71,64.69,58.19z"/>
		<circle class="st0" cx="64.93" cy="51.51" r="2.75"/>
		<circle class="st0" cx="47.92" cy="54.85" r="2.75"/>
		<circle class="st0" cx="25.31" cy="30.59" r="2.75"/>
		<circle class="st0" cx="31.19" cy="50.92" r="2.75"/>
		<circle class="st0" cx="25.31" cy="48.22" r="2.75"/>
		<circle class="st0" cx="15.77" cy="43.13" r="2.75"/>
		<circle class="st0" cx="2.95" cy="35.17" r="2.75"/>
		<g>
			
				<rect x="6.73" y="32.66" transform="matrix(0.0171 -0.9999 0.9999 0.0171 -27.6227 41.0358)" class="st0" width="0.66" height="3.82"/>
		</g>
		<g>
			
				<rect x="13.09" y="32.49" transform="matrix(0.9519 -0.3065 0.3065 0.9519 -9.1799 7.1658)" class="st0" width="10.27" height="0.66"/>
		</g>
		<g>
			
				<rect x="8.87" y="34.13" transform="matrix(0.519 -0.8548 0.8548 0.519 -29.2558 26.815)" class="st0" width="0.66" height="10.55"/>
		</g>
		<g>
			
				<rect x="20.17" y="42.64" transform="matrix(0.463 -0.8864 0.8864 0.463 -29.5539 42.7403)" class="st0" width="0.66" height="6.24"/>
		</g>
		<g>
			
				<rect x="27.9" y="48.67" transform="matrix(0.4043 -0.9146 0.9146 0.4043 -28.5612 55.3768)" class="st0" width="0.66" height="1.89"/>
		</g>
		<g>
			
				<rect x="39.18" y="46.73" transform="matrix(0.2027 -0.9792 0.9792 0.2027 -20.4405 80.9745)" class="st0" width="0.66" height="12.63"/>
		</g>
		<g>
			
				<rect x="54.6" y="51.61" transform="matrix(0.2073 -0.9783 0.9783 0.2073 -11.759 98.5483)" class="st0" width="0.66" height="9.84"/>
		</g>
		<g>
			<polygon class="st0" points="63.33,56.3 62.73,56.05 63.78,53.52 64.39,53.77 			"/>
		</g>
		<g>
			<polygon class="st0" points="66.05,49.46 65.42,49.28 75.4,14.39 76.03,14.58 			"/>
		</g>
		<g>
			<rect x="76.57" y="5.24" class="st0" width="0.66" height="4.82"/>
		</g>
		<g>
			
				<rect x="40.8" y="20.02" transform="matrix(0.9094 -0.416 0.416 0.9094 -3.182 26.0874)" class="st0" width="34.96" height="0.66"/>
		</g>
		<g>
			
				<rect x="27.53" y="29.37" transform="matrix(0.9856 -0.1692 0.1692 0.9856 -4.5516 5.9739)" class="st0" width="10.51" height="0.66"/>
		</g>
	</g>
</g>
</svg>
