<?xml version="1.0" encoding="utf-8"?>
<!-- Generator: Adobe Illustrator 27.9.2, SVG Export Plug-In . SVG Version: 6.00 Build 0)  -->
<svg version="1.1" id="Layer_1" xmlns="http://www.w3.org/2000/svg" xmlns:xlink="http://www.w3.org/1999/xlink" x="0px" y="0px"
	 viewBox="0 0 83.09 63.5" style="enable-background:new 0 0 83.09 63.5;" xml:space="preserve">
<style type="text/css">
	.st0{fill:#FFFFFF;}
</style>
<g>
	<g>
		<g>
			<g>
				<g>
					<path class="st0" d="M6.56,5.9c-1.63,0-2.95-1.32-2.95-2.95C3.61,1.32,4.93,0,6.56,0s2.95,1.32,2.95,2.95
						C9.51,4.58,8.19,5.9,6.56,5.9z M6.56,1.32c-0.9,0-1.63,0.73-1.63,1.63c0,0.9,0.73,1.63,1.63,1.63S8.2,3.85,8.2,2.95
						C8.2,2.05,7.46,1.32,6.56,1.32z"/>
				</g>
				<g>
					<path class="st0" d="M2.95,12.43C1.32,12.43,0,11.11,0,9.48c0-1.63,1.32-2.95,2.95-2.95c1.63,0,2.95,1.32,2.95,2.95
						C5.9,11.11,4.58,12.43,2.95,12.43z M2.95,7.85c-0.9,0-1.63,0.73-1.63,1.63c0,0.9,0.73,1.63,1.63,1.63
						c0.9,0,1.63-0.73,1.63-1.63C4.58,8.58,3.85,7.85,2.95,7.85z"/>
				</g>
				<g>
					<path class="st0" d="M7.54,15.6c-1.63,0-2.95-1.32-2.95-2.95c0-1.63,1.32-2.95,2.95-2.95c1.63,0,2.95,1.32,2.95,2.95
						C10.49,14.28,9.16,15.6,7.54,15.6z M7.54,11.02c-0.9,0-1.63,0.73-1.63,1.63c0,0.9,0.73,1.63,1.63,1.63
						c0.9,0,1.63-0.73,1.63-1.63C9.17,11.75,8.44,11.02,7.54,11.02z"/>
				</g>
				<g>
					<path class="st0" d="M12.59,18.5c-1.63,0-2.95-1.32-2.95-2.95c0-1.63,1.32-2.95,2.95-2.95c1.63,0,2.95,1.32,2.95,2.95
						C15.54,17.18,14.22,18.5,12.59,18.5z M12.59,13.92c-0.9,0-1.63,0.73-1.63,1.63c0,0.9,0.73,1.63,1.63,1.63
						c0.9,0,1.63-0.73,1.63-1.63C14.23,14.65,13.49,13.92,12.59,13.92z"/>
				</g>
				<g>
					<path class="st0" d="M17.18,23.6c-1.63,0-2.95-1.32-2.95-2.95c0-1.63,1.32-2.95,2.95-2.95c1.63,0,2.95,1.32,2.95,2.95
						C20.13,22.28,18.8,23.6,17.18,23.6z M17.18,19.02c-0.9,0-1.63,0.73-1.63,1.63c0,0.9,0.73,1.63,1.63,1.63
						c0.9,0,1.63-0.73,1.63-1.63C18.81,19.75,18.08,19.02,17.18,19.02z"/>
				</g>
				<g>
					<path class="st0" d="M15.51,36.49c-1.63,0-2.95-1.32-2.95-2.95c0-1.63,1.32-2.95,2.95-2.95c1.63,0,2.95,1.32,2.95,2.95
						C18.46,35.17,17.14,36.49,15.51,36.49z M15.51,31.91c-0.9,0-1.63,0.73-1.63,1.63c0,0.9,0.73,1.63,1.63,1.63
						c0.9,0,1.63-0.73,1.63-1.63C17.15,32.64,16.41,31.91,15.51,31.91z"/>
				</g>
				<g>
					<path class="st0" d="M15.51,63.5c-1.63,0-2.95-1.32-2.95-2.95c0-1.63,1.32-2.95,2.95-2.95c1.63,0,2.95,1.32,2.95,2.95
						C18.46,62.18,17.14,63.5,15.51,63.5z M15.51,58.92c-0.9,0-1.63,0.73-1.63,1.63c0,0.9,0.73,1.63,1.63,1.63
						c0.9,0,1.63-0.73,1.63-1.63C17.15,59.65,16.41,58.92,15.51,58.92z"/>
				</g>
				<g>
					<path class="st0" d="M19.75,59.52c-1.63,0-2.95-1.32-2.95-2.95c0-1.63,1.32-2.95,2.95-2.95c1.63,0,2.95,1.32,2.95,2.95
						C22.7,58.19,21.38,59.52,19.75,59.52z M19.75,54.93c-0.9,0-1.63,0.73-1.63,1.63c0,0.9,0.73,1.63,1.63,1.63
						c0.9,0,1.63-0.73,1.63-1.63C21.39,55.66,20.66,54.93,19.75,54.93z"/>
				</g>
				<g>
					<path class="st0" d="M22.05,54.09c-1.63,0-2.95-1.32-2.95-2.95c0-1.63,1.32-2.95,2.95-2.95c1.63,0,2.95,1.32,2.95,2.95
						C25,52.77,23.67,54.09,22.05,54.09z M22.05,49.51c-0.9,0-1.63,0.73-1.63,1.63c0,0.9,0.73,1.63,1.63,1.63
						c0.9,0,1.63-0.73,1.63-1.63C23.68,50.24,22.95,49.51,22.05,49.51z"/>
				</g>
				<g>
					<path class="st0" d="M16.61,49.51c-1.63,0-2.95-1.32-2.95-2.95c0-1.63,1.32-2.95,2.95-2.95c1.63,0,2.95,1.32,2.95,2.95
						C19.56,48.18,18.24,49.51,16.61,49.51z M16.61,44.92c-0.9,0-1.63,0.73-1.63,1.63c0,0.9,0.73,1.63,1.63,1.63
						c0.9,0,1.63-0.73,1.63-1.63C18.25,45.65,17.51,44.92,16.61,44.92z"/>
				</g>
				<g>
					<path class="st0" d="M26.63,49.51c-1.63,0-2.95-1.32-2.95-2.95c0-1.63,1.32-2.95,2.95-2.95c1.63,0,2.95,1.32,2.95,2.95
						C29.58,48.18,28.26,49.51,26.63,49.51z M26.63,44.92c-0.9,0-1.63,0.73-1.63,1.63c0,0.9,0.73,1.63,1.63,1.63
						c0.9,0,1.63-0.73,1.63-1.63C28.27,45.65,27.53,44.92,26.63,44.92z"/>
				</g>
				<g>
					<path class="st0" d="M33.31,41.48c-1.63,0-2.95-1.32-2.95-2.95c0-1.63,1.32-2.95,2.95-2.95c1.63,0,2.95,1.32,2.95,2.95
						C36.26,40.15,34.94,41.48,33.31,41.48z M33.31,36.89c-0.9,0-1.63,0.73-1.63,1.63c0,0.9,0.73,1.63,1.63,1.63
						c0.9,0,1.63-0.73,1.63-1.63C34.94,37.62,34.21,36.89,33.31,36.89z"/>
				</g>
				<g>
					<path class="st0" d="M58.08,26.73c-1.63,0-2.95-1.32-2.95-2.95c0-1.63,1.32-2.95,2.95-2.95c1.63,0,2.95,1.32,2.95,2.95
						C61.03,25.41,59.71,26.73,58.08,26.73z M58.08,22.15c-0.9,0-1.63,0.73-1.63,1.63c0,0.9,0.73,1.63,1.63,1.63
						c0.9,0,1.63-0.73,1.63-1.63C59.71,22.88,58.98,22.15,58.08,22.15z"/>
				</g>
				<g>
					<path class="st0" d="M66.53,23.67c-1.63,0-2.95-1.32-2.95-2.95c0-1.63,1.32-2.95,2.95-2.95c1.63,0,2.95,1.32,2.95,2.95
						C69.48,22.34,68.16,23.67,66.53,23.67z M66.53,19.08c-0.9,0-1.63,0.73-1.63,1.63c0,0.9,0.73,1.63,1.63,1.63
						c0.9,0,1.63-0.73,1.63-1.63C68.17,19.81,67.43,19.08,66.53,19.08z"/>
				</g>
				<g>
					<path class="st0" d="M69.85,30.28c-1.63,0-2.95-1.32-2.95-2.95c0-1.63,1.32-2.95,2.95-2.95c1.63,0,2.95,1.32,2.95,2.95
						C72.81,28.96,71.48,30.28,69.85,30.28z M69.85,25.69c-0.9,0-1.63,0.73-1.63,1.63s0.73,1.63,1.63,1.63
						c0.9,0,1.63-0.73,1.63-1.63S70.76,25.69,69.85,25.69z"/>
				</g>
				<g>
					<path class="st0" d="M77.48,27.19c-1.63,0-2.95-1.32-2.95-2.95c0-1.63,1.32-2.95,2.95-2.95c1.63,0,2.95,1.32,2.95,2.95
						C80.43,25.87,79.11,27.19,77.48,27.19z M77.48,22.61c-0.9,0-1.63,0.73-1.63,1.63c0,0.9,0.73,1.63,1.63,1.63
						c0.9,0,1.63-0.73,1.63-1.63C79.12,23.34,78.38,22.61,77.48,22.61z"/>
				</g>
				<g>
					<path class="st0" d="M80.14,19.95c-1.63,0-2.95-1.32-2.95-2.95c0-1.63,1.32-2.95,2.95-2.95c1.63,0,2.95,1.32,2.95,2.95
						C83.09,18.62,81.77,19.95,80.14,19.95z M80.14,15.36c-0.9,0-1.63,0.73-1.63,1.63c0,0.9,0.73,1.63,1.63,1.63
						c0.9,0,1.63-0.73,1.63-1.63C81.78,16.1,81.04,15.36,80.14,15.36z"/>
				</g>
				<g>
					<path class="st0" d="M70.76,18.44c-1.63,0-2.95-1.32-2.95-2.95c0-1.63,1.32-2.95,2.95-2.95c1.63,0,2.95,1.32,2.95,2.95
						C73.71,17.12,72.39,18.44,70.76,18.44z M70.76,13.86c-0.9,0-1.63,0.73-1.63,1.63c0,0.9,0.73,1.63,1.63,1.63
						c0.9,0,1.63-0.73,1.63-1.63C72.39,14.59,71.66,13.86,70.76,13.86z"/>
				</g>
				<g>
					<path class="st0" d="M75.91,16.15c-1.63,0-2.95-1.32-2.95-2.95c0-1.63,1.32-2.95,2.95-2.95c1.63,0,2.95,1.32,2.95,2.95
						C78.86,14.82,77.54,16.15,75.91,16.15z M75.91,11.56c-0.9,0-1.63,0.73-1.63,1.63c0,0.9,0.73,1.63,1.63,1.63
						s1.63-0.73,1.63-1.63C77.54,12.3,76.81,11.56,75.91,11.56z"/>
				</g>
				<g>
					<path class="st0" d="M39.48,37.9c-1.63,0-2.95-1.32-2.95-2.95c0-1.63,1.32-2.95,2.95-2.95c1.63,0,2.95,1.32,2.95,2.95
						C42.43,36.57,41.11,37.9,39.48,37.9z M39.48,33.31c-0.9,0-1.63,0.73-1.63,1.63c0,0.9,0.73,1.63,1.63,1.63
						c0.9,0,1.63-0.73,1.63-1.63C41.12,34.04,40.38,33.31,39.48,33.31z"/>
				</g>
			</g>
			<g>
				<g>
					
						<rect x="3.32" y="5.89" transform="matrix(0.4281 -0.9037 0.9037 0.4281 -2.8983 7.8635)" class="st0" width="2.89" height="0.66"/>
				</g>
				<g>
					
						<rect x="4.85" y="10.67" transform="matrix(0.5673 -0.8235 0.8235 0.5673 -6.9563 9.0937)" class="st0" width="0.66" height="1"/>
				</g>
				<g>
					<polygon class="st0" points="10.39,14.77 9.32,14.14 9.65,13.57 10.73,14.2 					"/>
				</g>
				<g>
					
						<rect x="14.78" y="16.74" transform="matrix(0.7176 -0.6965 0.6965 0.7176 -8.202 15.5808)" class="st0" width="0.66" height="2.32"/>
				</g>
				<g>
					
						<rect x="12.16" y="26.77" transform="matrix(0.1307 -0.9914 0.9914 0.1307 -12.636 39.7872)" class="st0" width="8.41" height="0.66"/>
				</g>
				<g>
					
						<rect x="15.53" y="35.82" transform="matrix(0.9965 -0.083 0.083 0.9965 -3.2708 1.455)" class="st0" width="0.66" height="8.5"/>
				</g>
				<g>
					
						<rect x="11.31" y="53.22" transform="matrix(0.0654 -0.9979 0.9979 0.0654 -38.4491 66.0392)" class="st0" width="9.45" height="0.66"/>
				</g>
				<g>
					<polygon class="st0" points="17.39,59.23 16.96,58.73 17.9,57.92 18.33,58.42 					"/>
				</g>
				<g>
					
						<rect x="20.19" y="53.51" transform="matrix(0.4743 -0.8804 0.8804 0.4743 -36.4329 46.6604)" class="st0" width="1.32" height="0.66"/>
				</g>
				<g>
					<polygon class="st0" points="23.41,49.45 23.04,48.9 24.71,47.77 25.08,48.32 					"/>
				</g>
				<g>
					<polygon class="st0" points="28.22,44.91 27.72,44.49 31.47,39.97 31.98,40.39 					"/>
				</g>
				<g>
					
						<rect x="35.06" y="36.32" transform="matrix(0.886 -0.4636 0.4636 0.886 -12.8479 21.0253)" class="st0" width="2.56" height="0.66"/>
				</g>
				<g>
					<polygon class="st0" points="41.69,34.17 41.35,33.61 56,24.77 56.34,25.34 					"/>
				</g>
				<g>
					
						<rect x="60.08" y="21.85" transform="matrix(0.9492 -0.3145 0.3145 0.9492 -3.8165 20.716)" class="st0" width="4.41" height="0.66"/>
				</g>
				<g>
					
						<rect x="67.34" y="17.6" transform="matrix(0.6484 -0.7613 0.7613 0.6484 10.4112 58.4004)" class="st0" width="2.17" height="0.66"/>
				</g>
				<g>
					<polygon class="st0" points="72.95,14.82 72.71,14.21 73.69,13.81 73.93,14.42 					"/>
				</g>
				<g>
					
						<rect x="77.81" y="14.41" transform="matrix(0.6948 -0.7192 0.7192 0.6948 13.0843 60.7667)" class="st0" width="0.66" height="1.12"/>
				</g>
				<g>
					
						<rect x="77.63" y="20.46" transform="matrix(0.327 -0.945 0.945 0.327 33.6923 88.8769)" class="st0" width="3.23" height="0.66"/>
				</g>
				<g>
					
						<rect x="71.94" y="25.81" transform="matrix(0.911 -0.4125 0.4125 0.911 -4.2096 32.7673)" class="st0" width="3.71" height="0.66"/>
				</g>
				<g>
					<polygon class="st0" points="68.4,25.51 67.07,23 67.65,22.7 68.98,25.21 					"/>
				</g>
			</g>
		</g>
		<circle class="st0" cx="6.56" cy="2.95" r="2.75"/>
		<path class="st0" d="M5.7,9.48c0-1.52-1.23-2.75-2.75-2.75c-1.52,0-2.75,1.23-2.75,2.75s1.23,2.75,2.75,2.75
			C4.47,12.23,5.7,11,5.7,9.48z"/>
		<path class="st0" d="M10.29,12.65c0-1.52-1.23-2.75-2.75-2.75c-1.52,0-2.75,1.23-2.75,2.75s1.23,2.75,2.75,2.75
			C9.05,15.4,10.29,14.17,10.29,12.65z"/>
		<circle class="st0" cx="12.59" cy="15.55" r="2.75"/>
		<path class="st0" d="M19.93,20.65c0-1.52-1.23-2.75-2.75-2.75c-1.52,0-2.75,1.23-2.75,2.75c0,1.52,1.23,2.75,2.75,2.75
			C18.7,23.4,19.93,22.17,19.93,20.65z"/>
		<circle class="st0" cx="15.51" cy="33.54" r="2.75"/>
		<circle class="st0" cx="15.51" cy="60.55" r="2.75"/>
		<path class="st0" d="M22.5,56.57c0-1.52-1.23-2.75-2.75-2.75c-1.52,0-2.75,1.23-2.75,2.75c0,1.52,1.23,2.75,2.75,2.75
			C21.27,59.32,22.5,58.08,22.5,56.57z"/>
		<path class="st0" d="M24.8,51.14c0-1.52-1.23-2.75-2.75-2.75c-1.52,0-2.75,1.23-2.75,2.75c0,1.52,1.23,2.75,2.75,2.75
			C23.57,53.89,24.8,52.66,24.8,51.14z"/>
		<circle class="st0" cx="16.61" cy="46.55" r="2.75"/>
		<circle class="st0" cx="26.63" cy="46.55" r="2.75"/>
		<circle class="st0" cx="33.31" cy="38.52" r="2.75"/>
		<path class="st0" d="M60.83,23.78c0-1.52-1.23-2.75-2.75-2.75c-1.52,0-2.75,1.23-2.75,2.75s1.23,2.75,2.75,2.75
			C59.6,26.53,60.83,25.3,60.83,23.78z"/>
		<circle class="st0" cx="66.53" cy="20.71" r="2.75"/>
		<path class="st0" d="M72.61,27.33c0-1.52-1.23-2.75-2.75-2.75c-1.52,0-2.75,1.23-2.75,2.75s1.23,2.75,2.75,2.75
			C71.37,30.08,72.61,28.85,72.61,27.33z"/>
		<path class="st0" d="M80.23,24.24c0-1.52-1.23-2.75-2.75-2.75c-1.52,0-2.75,1.23-2.75,2.75c0,1.52,1.23,2.75,2.75,2.75
			C79,26.99,80.23,25.76,80.23,24.24z"/>
		<path class="st0" d="M82.89,17c0-1.52-1.23-2.75-2.75-2.75c-1.52,0-2.75,1.23-2.75,2.75c0,1.52,1.23,2.75,2.75,2.75
			C81.66,19.75,82.89,18.52,82.89,17z"/>
		<path class="st0" d="M73.51,15.49c0-1.52-1.23-2.75-2.75-2.75s-2.75,1.23-2.75,2.75c0,1.52,1.23,2.75,2.75,2.75
			S73.51,17.01,73.51,15.49z"/>
		<circle class="st0" cx="75.91" cy="13.2" r="2.75"/>
		<circle class="st0" cx="39.48" cy="34.95" r="2.75"/>
		<g>
			
				<rect x="3.32" y="5.89" transform="matrix(0.4281 -0.9037 0.9037 0.4281 -2.8983 7.8635)" class="st0" width="2.89" height="0.66"/>
		</g>
		<g>
			
				<rect x="4.85" y="10.67" transform="matrix(0.5673 -0.8235 0.8235 0.5673 -6.9563 9.0937)" class="st0" width="0.66" height="1"/>
		</g>
		<g>
			<polygon class="st0" points="10.39,14.77 9.32,14.14 9.65,13.57 10.73,14.2 			"/>
		</g>
		<g>
			
				<rect x="14.78" y="16.74" transform="matrix(0.7176 -0.6965 0.6965 0.7176 -8.202 15.5808)" class="st0" width="0.66" height="2.32"/>
		</g>
		<g>
			
				<rect x="12.16" y="26.77" transform="matrix(0.1307 -0.9914 0.9914 0.1307 -12.636 39.7872)" class="st0" width="8.41" height="0.66"/>
		</g>
		<g>
			
				<rect x="15.53" y="35.82" transform="matrix(0.9965 -0.083 0.083 0.9965 -3.2708 1.455)" class="st0" width="0.66" height="8.5"/>
		</g>
		<g>
			
				<rect x="11.31" y="53.22" transform="matrix(0.0654 -0.9979 0.9979 0.0654 -38.4491 66.0392)" class="st0" width="9.45" height="0.66"/>
		</g>
		<g>
			<polygon class="st0" points="17.39,59.23 16.96,58.73 17.9,57.92 18.33,58.42 			"/>
		</g>
		<g>
			
				<rect x="20.19" y="53.51" transform="matrix(0.4743 -0.8804 0.8804 0.4743 -36.4329 46.6604)" class="st0" width="1.32" height="0.66"/>
		</g>
		<g>
			<polygon class="st0" points="23.41,49.45 23.04,48.9 24.71,47.77 25.08,48.32 			"/>
		</g>
		<g>
			<polygon class="st0" points="28.22,44.91 27.72,44.49 31.47,39.97 31.98,40.39 			"/>
		</g>
		<g>
			
				<rect x="35.06" y="36.32" transform="matrix(0.886 -0.4636 0.4636 0.886 -12.8479 21.0253)" class="st0" width="2.56" height="0.66"/>
		</g>
		<g>
			<polygon class="st0" points="41.69,34.17 41.35,33.61 56,24.77 56.34,25.34 			"/>
		</g>
		<g>
			
				<rect x="60.08" y="21.85" transform="matrix(0.9492 -0.3145 0.3145 0.9492 -3.8165 20.716)" class="st0" width="4.41" height="0.66"/>
		</g>
		<g>
			
				<rect x="67.34" y="17.6" transform="matrix(0.6484 -0.7613 0.7613 0.6484 10.4112 58.4004)" class="st0" width="2.17" height="0.66"/>
		</g>
		<g>
			<polygon class="st0" points="72.95,14.82 72.71,14.21 73.69,13.81 73.93,14.42 			"/>
		</g>
		<g>
			
				<rect x="77.81" y="14.41" transform="matrix(0.6948 -0.7192 0.7192 0.6948 13.0843 60.7667)" class="st0" width="0.66" height="1.12"/>
		</g>
		<g>
			
				<rect x="77.63" y="20.46" transform="matrix(0.327 -0.945 0.945 0.327 33.6923 88.8769)" class="st0" width="3.23" height="0.66"/>
		</g>
		<g>
			
				<rect x="71.94" y="25.81" transform="matrix(0.911 -0.4125 0.4125 0.911 -4.2096 32.7673)" class="st0" width="3.71" height="0.66"/>
		</g>
		<g>
			<polygon class="st0" points="68.4,25.51 67.07,23 67.65,22.7 68.98,25.21 			"/>
		</g>
	</g>
</g>
</svg>
