<?xml version="1.0" encoding="utf-8"?>
<!-- Generator: Adobe Illustrator 27.9.2, SVG Export Plug-In . SVG Version: 6.00 Build 0)  -->
<svg version="1.1" id="Layer_1" xmlns="http://www.w3.org/2000/svg" xmlns:xlink="http://www.w3.org/1999/xlink" x="0px" y="0px"
	 viewBox="0 0 57.69 62.94" style="enable-background:new 0 0 57.69 62.94;" xml:space="preserve">
<style type="text/css">
	.st0{fill:#FFFFFF;}
</style>
<g>
	<g>
		<g>
			<g>
				<g>
					<path class="st0" d="M2.95,9.92C1.32,9.92,0,8.6,0,6.97c0-1.63,1.32-2.95,2.95-2.95c1.63,0,2.95,1.32,2.95,2.95
						C5.9,8.6,4.58,9.92,2.95,9.92z M2.95,5.34c-0.9,0-1.63,0.73-1.63,1.63c0,0.9,0.73,1.63,1.63,1.63s1.63-0.73,1.63-1.63
						C4.58,6.07,3.85,5.34,2.95,5.34z"/>
				</g>
				<g>
					<path class="st0" d="M37.14,5.9c-1.63,0-2.95-1.32-2.95-2.95c0-1.63,1.32-2.95,2.95-2.95c1.63,0,2.95,1.32,2.95,2.95
						C40.09,4.58,38.76,5.9,37.14,5.9z M37.14,1.32c-0.9,0-1.63,0.73-1.63,1.63c0,0.9,0.73,1.63,1.63,1.63
						c0.9,0,1.63-0.73,1.63-1.63C38.77,2.05,38.04,1.32,37.14,1.32z"/>
				</g>
				<g>
					<path class="st0" d="M53.15,40.66c-1.63,0-2.95-1.32-2.95-2.95c0-1.63,1.32-2.95,2.95-2.95c1.63,0,2.95,1.32,2.95,2.95
						C56.1,39.33,54.78,40.66,53.15,40.66z M53.15,36.07c-0.9,0-1.63,0.73-1.63,1.63c0,0.9,0.73,1.63,1.63,1.63
						c0.9,0,1.63-0.73,1.63-1.63C54.79,36.8,54.06,36.07,53.15,36.07z"/>
				</g>
				<g>
					<path class="st0" d="M54.74,54.68c-1.63,0-2.95-1.32-2.95-2.95c0-1.63,1.32-2.95,2.95-2.95c1.63,0,2.95,1.32,2.95,2.95
						C57.69,53.36,56.36,54.68,54.74,54.68z M54.74,50.1c-0.9,0-1.63,0.73-1.63,1.63c0,0.9,0.73,1.63,1.63,1.63
						c0.9,0,1.63-0.73,1.63-1.63C56.37,50.83,55.64,50.1,54.74,50.1z"/>
				</g>
				<g>
					<path class="st0" d="M50.29,62.94c-1.63,0-2.95-1.32-2.95-2.95c0-1.63,1.32-2.95,2.95-2.95c1.63,0,2.95,1.32,2.95,2.95
						C53.24,61.61,51.92,62.94,50.29,62.94z M50.29,58.35c-0.9,0-1.63,0.73-1.63,1.63c0,0.9,0.73,1.63,1.63,1.63
						c0.9,0,1.63-0.73,1.63-1.63C51.92,59.08,51.19,58.35,50.29,58.35z"/>
				</g>
			</g>
			<g>
				<g>
					
						<rect x="5.09" y="4.41" transform="matrix(0.9929 -0.1187 0.1187 0.9929 -0.4206 2.41)" class="st0" width="29.86" height="0.66"/>
				</g>
				<g>
					
						<rect x="45" y="3.4" transform="matrix(0.9066 -0.422 0.422 0.9066 -4.3102 21.022)" class="st0" width="0.66" height="33.71"/>
				</g>
				<g>
					
						<rect x="53.63" y="39.95" transform="matrix(0.9941 -0.1087 0.1087 0.9941 -4.5395 6.1285)" class="st0" width="0.66" height="9.54"/>
				</g>
				<g>
					
						<rect x="50.32" y="55.67" transform="matrix(0.4389 -0.8985 0.8985 0.4389 -20.7227 78.8061)" class="st0" width="4.83" height="0.66"/>
				</g>
			</g>
		</g>
		<path class="st0" d="M5.7,6.97c0-1.52-1.23-2.75-2.75-2.75c-1.52,0-2.75,1.23-2.75,2.75c0,1.52,1.23,2.75,2.75,2.75
			C4.47,9.72,5.7,8.49,5.7,6.97z"/>
		<path class="st0" d="M39.89,2.95c0-1.52-1.23-2.75-2.75-2.75c-1.52,0-2.75,1.23-2.75,2.75c0,1.52,1.23,2.75,2.75,2.75
			C38.65,5.7,39.89,4.47,39.89,2.95z"/>
		<circle class="st0" cx="53.15" cy="37.71" r="2.75"/>
		<circle class="st0" cx="54.74" cy="51.73" r="2.75"/>
		<circle class="st0" cx="50.29" cy="59.99" r="2.75"/>
		<g>
			
				<rect x="5.09" y="4.41" transform="matrix(0.9929 -0.1187 0.1187 0.9929 -0.4206 2.41)" class="st0" width="29.86" height="0.66"/>
		</g>
		<g>
			<rect x="45" y="3.4" transform="matrix(0.9066 -0.422 0.422 0.9066 -4.3102 21.022)" class="st0" width="0.66" height="33.71"/>
		</g>
		<g>
			
				<rect x="53.63" y="39.95" transform="matrix(0.9941 -0.1087 0.1087 0.9941 -4.5395 6.1285)" class="st0" width="0.66" height="9.54"/>
		</g>
		<g>
			
				<rect x="50.32" y="55.67" transform="matrix(0.4389 -0.8985 0.8985 0.4389 -20.7227 78.8061)" class="st0" width="4.83" height="0.66"/>
		</g>
	</g>
</g>
</svg>
