<?xml version="1.0" encoding="utf-8"?>
<!-- Generator: Adobe Illustrator 27.9.2, SVG Export Plug-In . SVG Version: 6.00 Build 0)  -->
<svg version="1.1" id="Layer_1" xmlns="http://www.w3.org/2000/svg" xmlns:xlink="http://www.w3.org/1999/xlink" x="0px" y="0px"
	 viewBox="0 0 75.62 52.97" style="enable-background:new 0 0 75.62 52.97;" xml:space="preserve">
<style type="text/css">
	.st0{fill:#FFFFFF;}
</style>
<g>
	<g>
		<g>
			<g>
				<g>
					<path class="st0" d="M64.98,36.51c-1.63,0-2.95-1.32-2.95-2.95c0-1.63,1.32-2.95,2.95-2.95c1.63,0,2.95,1.32,2.95,2.95
						C67.93,35.18,66.61,36.51,64.98,36.51z M64.98,31.92c-0.9,0-1.63,0.73-1.63,1.63c0,0.9,0.73,1.63,1.63,1.63
						c0.9,0,1.63-0.73,1.63-1.63C66.62,32.66,65.88,31.92,64.98,31.92z"/>
				</g>
				<g>
					<path class="st0" d="M56.54,28.51c-1.63,0-2.95-1.32-2.95-2.95c0-1.63,1.32-2.95,2.95-2.95c1.63,0,2.95,1.32,2.95,2.95
						C59.49,27.19,58.16,28.51,56.54,28.51z M56.54,23.93c-0.9,0-1.63,0.73-1.63,1.63c0,0.9,0.73,1.63,1.63,1.63
						c0.9,0,1.63-0.73,1.63-1.63C58.17,24.66,57.44,23.93,56.54,23.93z"/>
				</g>
				<g>
					<path class="st0" d="M24.91,31.92c-1.63,0-2.95-1.32-2.95-2.95c0-1.63,1.32-2.95,2.95-2.95c1.63,0,2.95,1.32,2.95,2.95
						C27.86,30.6,26.54,31.92,24.91,31.92z M24.91,27.34c-0.9,0-1.63,0.73-1.63,1.63c0,0.9,0.73,1.63,1.63,1.63
						c0.9,0,1.63-0.73,1.63-1.63C26.55,28.07,25.81,27.34,24.91,27.34z"/>
				</g>
				<g>
					<path class="st0" d="M24.91,48.39c-1.63,0-2.95-1.32-2.95-2.95c0-1.63,1.32-2.95,2.95-2.95c1.63,0,2.95,1.32,2.95,2.95
						C27.86,47.06,26.54,48.39,24.91,48.39z M24.91,43.8c-0.9,0-1.63,0.73-1.63,1.63s0.73,1.63,1.63,1.63c0.9,0,1.63-0.73,1.63-1.63
						S25.81,43.8,24.91,43.8z"/>
				</g>
				<g>
					<path class="st0" d="M2.95,52.97C1.32,52.97,0,51.65,0,50.02c0-1.63,1.32-2.95,2.95-2.95c1.63,0,2.95,1.32,2.95,2.95
						C5.9,51.65,4.58,52.97,2.95,52.97z M2.95,48.39c-0.9,0-1.63,0.73-1.63,1.63c0,0.9,0.73,1.63,1.63,1.63
						c0.9,0,1.63-0.73,1.63-1.63C4.58,49.12,3.85,48.39,2.95,48.39z"/>
				</g>
				<g>
					<path class="st0" d="M65.8,50.68c-1.63,0-2.95-1.32-2.95-2.95c0-1.63,1.32-2.95,2.95-2.95c1.63,0,2.95,1.32,2.95,2.95
						C68.75,49.36,67.42,50.68,65.8,50.68z M65.8,46.1c-0.9,0-1.63,0.73-1.63,1.63c0,0.9,0.73,1.63,1.63,1.63s1.63-0.73,1.63-1.63
						C67.43,46.83,66.7,46.1,65.8,46.1z"/>
				</g>
				<g>
					<path class="st0" d="M56.54,17.5c-1.63,0-2.95-1.32-2.95-2.95c0-1.63,1.32-2.95,2.95-2.95c1.63,0,2.95,1.32,2.95,2.95
						C59.49,16.18,58.16,17.5,56.54,17.5z M56.54,12.92c-0.9,0-1.63,0.73-1.63,1.63c0,0.9,0.73,1.63,1.63,1.63
						c0.9,0,1.63-0.73,1.63-1.63C58.17,13.65,57.44,12.92,56.54,12.92z"/>
				</g>
				<g>
					<path class="st0" d="M68.09,5.9c-1.63,0-2.95-1.32-2.95-2.95c0-1.63,1.32-2.95,2.95-2.95s2.95,1.32,2.95,2.95
						C71.04,4.58,69.72,5.9,68.09,5.9z M68.09,1.32c-0.9,0-1.63,0.73-1.63,1.63s0.73,1.63,1.63,1.63s1.63-0.73,1.63-1.63
						S68.99,1.32,68.09,1.32z"/>
				</g>
				<g>
					<path class="st0" d="M72.67,12.07c-1.63,0-2.95-1.32-2.95-2.95c0-1.63,1.32-2.95,2.95-2.95c1.63,0,2.95,1.32,2.95,2.95
						C75.62,10.75,74.3,12.07,72.67,12.07z M72.67,7.49c-0.9,0-1.63,0.73-1.63,1.63c0,0.9,0.73,1.63,1.63,1.63
						c0.9,0,1.63-0.73,1.63-1.63C74.31,8.22,73.58,7.49,72.67,7.49z"/>
				</g>
			</g>
			<g>
				<g>
					<polygon class="st0" points="71.14,7.42 69.24,4.95 69.77,4.55 71.66,7.02 					"/>
				</g>
				<g>
					<polygon class="st0" points="58.25,13.03 57.78,12.57 66.09,4.17 66.55,4.64 					"/>
				</g>
				<g>
					
						<rect x="56.62" y="16.83" transform="matrix(0.9992 -0.0397 0.0397 0.9992 -0.7529 2.2783)" class="st0" width="0.66" height="6.51"/>
				</g>
				<g>
					
						<rect x="60.65" y="25.77" transform="matrix(0.7006 -0.7136 0.7136 0.7006 -2.6653 52.2903)" class="st0" width="0.66" height="7.09"/>
				</g>
				<g>
					<polygon class="st0" points="65.47,45.47 64.66,35.88 65.31,35.82 66.13,45.41 					"/>
				</g>
				<g>
					
						<rect x="45.03" y="28.4" transform="matrix(0.063 -0.998 0.998 0.063 -3.9946 88.9133)" class="st0" width="0.66" height="36.37"/>
				</g>
				<g>
					<polygon class="st0" points="5.32,49.82 5.17,49.18 22.54,45.12 22.7,45.76 					"/>
				</g>
				<g>
					
						<rect x="0.66" y="38.87" transform="matrix(0.7276 -0.686 0.686 0.7276 -23.1784 20.0199)" class="st0" width="25.92" height="0.66"/>
				</g>
				<g>
					
						<rect x="27.1" y="26.81" transform="matrix(0.9933 -0.1158 0.1158 0.9933 -2.8697 4.8989)" class="st0" width="27.24" height="0.66"/>
				</g>
			</g>
		</g>
		<path class="st0" d="M67.73,33.56c0-1.52-1.23-2.75-2.75-2.75c-1.52,0-2.75,1.23-2.75,2.75c0,1.52,1.23,2.75,2.75,2.75
			C66.5,36.31,67.73,35.08,67.73,33.56z"/>
		<path class="st0" d="M59.29,25.56c0-1.52-1.23-2.75-2.75-2.75c-1.52,0-2.75,1.23-2.75,2.75s1.23,2.75,2.75,2.75
			C58.06,28.31,59.29,27.08,59.29,25.56z"/>
		<circle class="st0" cx="24.91" cy="28.97" r="2.75"/>
		<path class="st0" d="M27.66,45.44c0-1.52-1.23-2.75-2.75-2.75s-2.75,1.23-2.75,2.75c0,1.52,1.23,2.75,2.75,2.75
			S27.66,46.96,27.66,45.44z"/>
		<circle class="st0" cx="2.95" cy="50.02" r="2.75"/>
		<path class="st0" d="M68.55,47.73c0-1.52-1.23-2.75-2.75-2.75c-1.52,0-2.75,1.23-2.75,2.75c0,1.52,1.23,2.75,2.75,2.75
			C67.32,50.48,68.55,49.25,68.55,47.73z"/>
		<path class="st0" d="M59.29,14.55c0-1.52-1.23-2.75-2.75-2.75c-1.52,0-2.75,1.23-2.75,2.75c0,1.52,1.23,2.75,2.75,2.75
			C58.06,17.3,59.29,16.07,59.29,14.55z"/>
		<circle class="st0" cx="68.09" cy="2.95" r="2.75"/>
		<circle class="st0" cx="72.67" cy="9.12" r="2.75"/>
		<g>
			<polygon class="st0" points="71.14,7.42 69.24,4.95 69.77,4.55 71.66,7.02 			"/>
		</g>
		<g>
			<polygon class="st0" points="58.25,13.03 57.78,12.57 66.09,4.17 66.55,4.64 			"/>
		</g>
		<g>
			
				<rect x="56.62" y="16.83" transform="matrix(0.9992 -0.0397 0.0397 0.9992 -0.7529 2.2783)" class="st0" width="0.66" height="6.51"/>
		</g>
		<g>
			
				<rect x="60.65" y="25.77" transform="matrix(0.7006 -0.7136 0.7136 0.7006 -2.6653 52.2903)" class="st0" width="0.66" height="7.09"/>
		</g>
		<g>
			<polygon class="st0" points="65.47,45.47 64.66,35.88 65.31,35.82 66.13,45.41 			"/>
		</g>
		<g>
			
				<rect x="45.03" y="28.4" transform="matrix(0.063 -0.998 0.998 0.063 -3.9946 88.9133)" class="st0" width="0.66" height="36.37"/>
		</g>
		<g>
			<polygon class="st0" points="5.32,49.82 5.17,49.18 22.54,45.12 22.7,45.76 			"/>
		</g>
		<g>
			
				<rect x="0.66" y="38.87" transform="matrix(0.7276 -0.686 0.686 0.7276 -23.1784 20.0199)" class="st0" width="25.92" height="0.66"/>
		</g>
		<g>
			
				<rect x="27.1" y="26.81" transform="matrix(0.9933 -0.1158 0.1158 0.9933 -2.8697 4.8989)" class="st0" width="27.24" height="0.66"/>
		</g>
	</g>
</g>
</svg>
