<?xml version="1.0" encoding="utf-8"?>
<!-- Generator: Adobe Illustrator 27.9.2, SVG Export Plug-In . SVG Version: 6.00 Build 0)  -->
<svg version="1.1" id="Layer_1" xmlns="http://www.w3.org/2000/svg" xmlns:xlink="http://www.w3.org/1999/xlink" x="0px" y="0px"
	 viewBox="0 0 69.81 67.45" style="enable-background:new 0 0 69.81 67.45;" xml:space="preserve">
<style type="text/css">
	.st0{fill:#FFFFFF;}
</style>
<g>
	<g>
		<g>
			<g>
				<g>
					<path class="st0" d="M2.95,25.98C1.32,25.98,0,24.66,0,23.03c0-1.63,1.32-2.95,2.95-2.95c1.63,0,2.95,1.32,2.95,2.95
						C5.9,24.66,4.58,25.98,2.95,25.98z M2.95,21.4c-0.9,0-1.63,0.73-1.63,1.63c0,0.9,0.73,1.63,1.63,1.63s1.63-0.73,1.63-1.63
						C4.58,22.13,3.85,21.4,2.95,21.4z"/>
				</g>
				<g>
					<path class="st0" d="M28,5.9c-1.63,0-2.95-1.32-2.95-2.95C25.05,1.32,26.38,0,28,0c1.63,0,2.95,1.32,2.95,2.95
						C30.95,4.58,29.63,5.9,28,5.9z M28,1.32c-0.9,0-1.63,0.73-1.63,1.63c0,0.9,0.73,1.63,1.63,1.63c0.9,0,1.63-0.73,1.63-1.63
						C29.64,2.05,28.91,1.32,28,1.32z"/>
				</g>
				<g>
					<path class="st0" d="M55.7,25.98c-1.63,0-2.95-1.32-2.95-2.95c0-1.63,1.32-2.95,2.95-2.95c1.63,0,2.95,1.32,2.95,2.95
						C58.65,24.66,57.33,25.98,55.7,25.98z M55.7,21.4c-0.9,0-1.63,0.73-1.63,1.63c0,0.9,0.73,1.63,1.63,1.63
						c0.9,0,1.63-0.73,1.63-1.63C57.33,22.13,56.6,21.4,55.7,21.4z"/>
				</g>
				<g>
					<path class="st0" d="M60.28,60.77c-1.63,0-2.95-1.32-2.95-2.95c0-1.63,1.32-2.95,2.95-2.95s2.95,1.32,2.95,2.95
						C63.23,59.44,61.91,60.77,60.28,60.77z M60.28,56.18c-0.9,0-1.63,0.73-1.63,1.63c0,0.9,0.73,1.63,1.63,1.63
						c0.9,0,1.63-0.73,1.63-1.63C61.92,56.92,61.18,56.18,60.28,56.18z"/>
				</g>
				<g>
					<path class="st0" d="M29.51,27.34c-1.63,0-2.95-1.32-2.95-2.95c0-1.63,1.32-2.95,2.95-2.95c1.63,0,2.95,1.32,2.95,2.95
						C32.46,26.02,31.14,27.34,29.51,27.34z M29.51,22.76c-0.9,0-1.63,0.73-1.63,1.63c0,0.9,0.73,1.63,1.63,1.63
						c0.9,0,1.63-0.73,1.63-1.63C31.14,23.49,30.41,22.76,29.51,22.76z"/>
				</g>
				<g>
					<path class="st0" d="M22.35,67.45c-1.63,0-2.95-1.32-2.95-2.95c0-1.63,1.32-2.95,2.95-2.95c1.63,0,2.95,1.32,2.95,2.95
						C25.3,66.13,23.98,67.45,22.35,67.45z M22.35,62.87c-0.9,0-1.63,0.73-1.63,1.63c0,0.9,0.73,1.63,1.63,1.63s1.63-0.73,1.63-1.63
						C23.99,63.6,23.25,62.87,22.35,62.87z"/>
				</g>
				<g>
					<path class="st0" d="M17.77,48.94c-1.63,0-2.95-1.32-2.95-2.95c0-1.63,1.32-2.95,2.95-2.95c1.63,0,2.95,1.32,2.95,2.95
						C20.72,47.61,19.39,48.94,17.77,48.94z M17.77,44.35c-0.9,0-1.63,0.73-1.63,1.63c0,0.9,0.73,1.63,1.63,1.63
						c0.9,0,1.63-0.73,1.63-1.63C19.4,45.08,18.67,44.35,17.77,44.35z"/>
				</g>
				<g>
					<path class="st0" d="M61.35,53.52c-1.63,0-2.95-1.32-2.95-2.95c0-1.63,1.32-2.95,2.95-2.95c1.63,0,2.95,1.32,2.95,2.95
						C64.3,52.2,62.98,53.52,61.35,53.52z M61.35,48.94c-0.9,0-1.63,0.73-1.63,1.63c0,0.9,0.73,1.63,1.63,1.63
						c0.9,0,1.63-0.73,1.63-1.63C62.99,49.67,62.25,48.94,61.35,48.94z"/>
				</g>
				<g>
					<path class="st0" d="M66.86,62.2c-1.63,0-2.95-1.32-2.95-2.95c0-1.63,1.32-2.95,2.95-2.95c1.63,0,2.95,1.32,2.95,2.95
						C69.81,60.87,68.49,62.2,66.86,62.2z M66.86,57.61c-0.9,0-1.63,0.73-1.63,1.63c0,0.9,0.73,1.63,1.63,1.63
						c0.9,0,1.63-0.73,1.63-1.63C68.49,58.35,67.76,57.61,66.86,57.61z"/>
				</g>
			</g>
			<g>
				<g>
					<polygon class="st0" points="64.51,59.26 62.41,58.77 62.56,58.13 64.66,58.62 					"/>
				</g>
				<g>
					
						<rect x="59.44" y="53.86" transform="matrix(0.1898 -0.9818 0.9818 0.1898 -3.9374 103.6161)" class="st0" width="2.74" height="0.66"/>
				</g>
				<g>
					
						<rect x="58.52" y="24.96" transform="matrix(0.9772 -0.2124 0.2124 0.9772 -6.4647 13.3399)" class="st0" width="0.66" height="23.59"/>
				</g>
				<g>
					
						<rect x="31.78" y="23.38" transform="matrix(0.9981 -0.0623 0.0623 0.9981 -1.3955 2.7025)" class="st0" width="21.65" height="0.66"/>
				</g>
				<g>
					<polygon class="st0" points="53.96,21.62 29.78,4.4 30.16,3.86 54.34,21.08 					"/>
				</g>
				<g>
					
						<rect x="1.28" y="12.32" transform="matrix(0.7931 -0.6091 0.6091 0.7931 -4.5768 11.8245)" class="st0" width="27.68" height="0.66"/>
				</g>
				<g>
					
						<rect x="15.9" y="12.7" transform="matrix(0.0617 -0.9981 0.9981 0.0617 -8.4393 38.4454)" class="st0" width="0.66" height="22.02"/>
				</g>
				<g>
					
						<rect x="9.84" y="23.21" transform="matrix(0.8292 -0.559 0.559 0.8292 -17.6064 11.5982)" class="st0" width="0.66" height="22.79"/>
				</g>
				<g>
					
						<rect x="19.74" y="47.98" transform="matrix(0.9777 -0.21 0.21 0.9777 -11.1558 5.4477)" class="st0" width="0.66" height="14.52"/>
				</g>
			</g>
		</g>
		<circle class="st0" cx="2.95" cy="23.03" r="2.75"/>
		<path class="st0" d="M30.75,2.95c0-1.52-1.23-2.75-2.75-2.75c-1.52,0-2.75,1.23-2.75,2.75S26.48,5.7,28,5.7
			C29.52,5.7,30.75,4.47,30.75,2.95z"/>
		<circle class="st0" cx="55.7" cy="23.03" r="2.75"/>
		<circle class="st0" cx="60.28" cy="57.82" r="2.75"/>
		<path class="st0" d="M32.26,24.39c0-1.52-1.23-2.75-2.75-2.75c-1.52,0-2.75,1.23-2.75,2.75c0,1.52,1.23,2.75,2.75,2.75
			C31.03,27.14,32.26,25.91,32.26,24.39z"/>
		<path class="st0" d="M25.1,64.5c0-1.52-1.23-2.75-2.75-2.75c-1.52,0-2.75,1.23-2.75,2.75c0,1.52,1.23,2.75,2.75,2.75
			C23.87,67.26,25.1,66.02,25.1,64.5z"/>
		<path class="st0" d="M20.52,45.99c0-1.52-1.23-2.75-2.75-2.75c-1.52,0-2.75,1.23-2.75,2.75c0,1.52,1.23,2.75,2.75,2.75
			C19.29,48.74,20.52,47.51,20.52,45.99z"/>
		<circle class="st0" cx="61.35" cy="50.57" r="2.75"/>
		<circle class="st0" cx="66.86" cy="59.25" r="2.75"/>
		<g>
			<polygon class="st0" points="64.51,59.26 62.41,58.77 62.56,58.13 64.66,58.62 			"/>
		</g>
		<g>
			
				<rect x="59.44" y="53.86" transform="matrix(0.1898 -0.9818 0.9818 0.1898 -3.9374 103.6161)" class="st0" width="2.74" height="0.66"/>
		</g>
		<g>
			
				<rect x="58.52" y="24.96" transform="matrix(0.9772 -0.2124 0.2124 0.9772 -6.4647 13.3399)" class="st0" width="0.66" height="23.59"/>
		</g>
		<g>
			
				<rect x="31.78" y="23.38" transform="matrix(0.9981 -0.0623 0.0623 0.9981 -1.3955 2.7025)" class="st0" width="21.65" height="0.66"/>
		</g>
		<g>
			<polygon class="st0" points="53.96,21.62 29.78,4.4 30.16,3.86 54.34,21.08 			"/>
		</g>
		<g>
			
				<rect x="1.28" y="12.32" transform="matrix(0.7931 -0.6091 0.6091 0.7931 -4.5768 11.8245)" class="st0" width="27.68" height="0.66"/>
		</g>
		<g>
			
				<rect x="15.9" y="12.7" transform="matrix(0.0617 -0.9981 0.9981 0.0617 -8.4393 38.4454)" class="st0" width="0.66" height="22.02"/>
		</g>
		<g>
			
				<rect x="9.84" y="23.21" transform="matrix(0.8292 -0.559 0.559 0.8292 -17.6064 11.5982)" class="st0" width="0.66" height="22.79"/>
		</g>
		<g>
			
				<rect x="19.74" y="47.98" transform="matrix(0.9777 -0.21 0.21 0.9777 -11.1558 5.4477)" class="st0" width="0.66" height="14.52"/>
		</g>
	</g>
</g>
</svg>
