<?xml version="1.0" encoding="utf-8"?>
<!-- Generator: Adobe Illustrator 27.9.2, SVG Export Plug-In . SVG Version: 6.00 Build 0)  -->
<svg version="1.1" id="Layer_1" xmlns="http://www.w3.org/2000/svg" xmlns:xlink="http://www.w3.org/1999/xlink" x="0px" y="0px"
	 viewBox="0 0 78.19 77.9" style="enable-background:new 0 0 78.19 77.9;" xml:space="preserve">
<style type="text/css">
	.st0{fill:#FFFFFF;}
</style>
<g>
	<g>
		<g>
			<g>
				<g>
					<path class="st0" d="M65.01,49.31c-1.63,0-2.95-1.32-2.95-2.95c0-1.63,1.32-2.95,2.95-2.95c1.63,0,2.95,1.32,2.95,2.95
						C67.96,47.99,66.64,49.31,65.01,49.31z M65.01,44.73c-0.9,0-1.63,0.73-1.63,1.63c0,0.9,0.73,1.63,1.63,1.63
						c0.9,0,1.63-0.73,1.63-1.63C66.64,45.46,65.91,44.73,65.01,44.73z"/>
				</g>
				<g>
					<path class="st0" d="M66.09,31.43c-1.63,0-2.95-1.32-2.95-2.95c0-1.63,1.32-2.95,2.95-2.95c1.63,0,2.95,1.32,2.95,2.95
						C69.04,30.11,67.72,31.43,66.09,31.43z M66.09,26.84c-0.9,0-1.63,0.73-1.63,1.63s0.73,1.63,1.63,1.63
						c0.9,0,1.63-0.73,1.63-1.63S67,26.84,66.09,26.84z"/>
				</g>
				<g>
					<path class="st0" d="M75.23,22.78c-1.63,0-2.95-1.32-2.95-2.95c0-1.63,1.32-2.95,2.95-2.95c1.63,0,2.95,1.32,2.95,2.95
						C78.19,21.46,76.86,22.78,75.23,22.78z M75.23,18.2c-0.9,0-1.63,0.73-1.63,1.63s0.73,1.63,1.63,1.63c0.9,0,1.63-0.73,1.63-1.63
						S76.14,18.2,75.23,18.2z"/>
				</g>
				<g>
					<path class="st0" d="M58.62,43.02c-1.63,0-2.95-1.32-2.95-2.95c0-1.63,1.32-2.95,2.95-2.95c1.63,0,2.95,1.32,2.95,2.95
						C61.57,41.7,60.25,43.02,58.62,43.02z M58.62,38.44c-0.9,0-1.63,0.73-1.63,1.63c0,0.9,0.73,1.63,1.63,1.63
						c0.9,0,1.63-0.73,1.63-1.63C60.26,39.17,59.52,38.44,58.62,38.44z"/>
				</g>
				<g>
					<path class="st0" d="M57.21,30.96c-1.63,0-2.95-1.32-2.95-2.95c0-1.63,1.32-2.95,2.95-2.95s2.95,1.32,2.95,2.95
						C60.16,29.63,58.84,30.96,57.21,30.96z M57.21,26.37c-0.9,0-1.63,0.73-1.63,1.63c0,0.9,0.73,1.63,1.63,1.63
						c0.9,0,1.63-0.73,1.63-1.63C58.85,27.11,58.12,26.37,57.21,26.37z"/>
				</g>
				<g>
					<path class="st0" d="M43.75,29.14c-1.63,0-2.95-1.32-2.95-2.95c0-1.63,1.32-2.95,2.95-2.95c1.63,0,2.95,1.32,2.95,2.95
						C46.7,27.81,45.38,29.14,43.75,29.14z M43.75,24.55c-0.9,0-1.63,0.73-1.63,1.63c0,0.9,0.73,1.63,1.63,1.63
						c0.9,0,1.63-0.73,1.63-1.63C45.38,25.29,44.65,24.55,43.75,24.55z"/>
				</g>
				<g>
					<path class="st0" d="M36.82,37.76c-1.63,0-2.95-1.32-2.95-2.95c0-1.63,1.32-2.95,2.95-2.95c1.63,0,2.95,1.32,2.95,2.95
						C39.77,36.44,38.44,37.76,36.82,37.76z M36.82,33.18c-0.9,0-1.63,0.73-1.63,1.63c0,0.9,0.73,1.63,1.63,1.63
						s1.63-0.73,1.63-1.63C38.45,33.91,37.72,33.18,36.82,33.18z"/>
				</g>
				<g>
					<path class="st0" d="M10.04,58.38c-1.63,0-2.95-1.32-2.95-2.95c0-1.63,1.32-2.95,2.95-2.95c1.63,0,2.95,1.32,2.95,2.95
						C12.99,57.05,11.67,58.38,10.04,58.38z M10.04,53.79c-0.9,0-1.63,0.73-1.63,1.63c0,0.9,0.73,1.63,1.63,1.63
						c0.9,0,1.63-0.73,1.63-1.63C11.67,54.52,10.94,53.79,10.04,53.79z"/>
				</g>
				<g>
					<path class="st0" d="M20.19,76.81c-1.63,0-2.95-1.32-2.95-2.95c0-1.63,1.32-2.95,2.95-2.95c1.63,0,2.95,1.32,2.95,2.95
						C23.14,75.48,21.82,76.81,20.19,76.81z M20.19,72.22c-0.9,0-1.63,0.73-1.63,1.63c0,0.9,0.73,1.63,1.63,1.63
						c0.9,0,1.63-0.73,1.63-1.63C21.82,72.95,21.09,72.22,20.19,72.22z"/>
				</g>
				<g>
					<path class="st0" d="M39.64,77.9c-1.63,0-2.95-1.32-2.95-2.95c0-1.63,1.32-2.95,2.95-2.95c1.63,0,2.95,1.32,2.95,2.95
						C42.59,76.57,41.27,77.9,39.64,77.9z M39.64,73.31c-0.9,0-1.63,0.73-1.63,1.63c0,0.9,0.73,1.63,1.63,1.63
						c0.9,0,1.63-0.73,1.63-1.63C41.28,74.05,40.54,73.31,39.64,73.31z"/>
				</g>
				<g>
					<path class="st0" d="M13.56,64.24c-1.63,0-2.95-1.32-2.95-2.95c0-1.63,1.32-2.95,2.95-2.95c1.63,0,2.95,1.32,2.95,2.95
						C16.51,62.92,15.19,64.24,13.56,64.24z M13.56,59.66c-0.9,0-1.63,0.73-1.63,1.63s0.73,1.63,1.63,1.63
						c0.9,0,1.63-0.73,1.63-1.63S14.46,59.66,13.56,59.66z"/>
				</g>
				<g>
					<path class="st0" d="M34.52,68.3c-1.63,0-2.95-1.32-2.95-2.95c0-1.63,1.32-2.95,2.95-2.95c1.63,0,2.95,1.32,2.95,2.95
						C37.47,66.98,36.15,68.3,34.52,68.3z M34.52,63.72c-0.9,0-1.63,0.73-1.63,1.63c0,0.9,0.73,1.63,1.63,1.63s1.63-0.73,1.63-1.63
						C36.16,64.45,35.42,63.72,34.52,63.72z"/>
				</g>
				<g>
					<path class="st0" d="M60.91,5.9c-1.63,0-2.95-1.32-2.95-2.95c0-1.63,1.32-2.95,2.95-2.95c1.63,0,2.95,1.32,2.95,2.95
						C63.87,4.58,62.54,5.9,60.91,5.9z M60.91,1.32c-0.9,0-1.63,0.73-1.63,1.63c0,0.9,0.73,1.63,1.63,1.63
						c0.9,0,1.63-0.73,1.63-1.63C62.55,2.05,61.82,1.32,60.91,1.32z"/>
				</g>
				<g>
					<path class="st0" d="M51.18,21.51c-1.63,0-2.95-1.32-2.95-2.95c0-1.63,1.32-2.95,2.95-2.95s2.95,1.32,2.95,2.95
						C54.13,20.18,52.81,21.51,51.18,21.51z M51.18,16.92c-0.9,0-1.63,0.73-1.63,1.63c0,0.9,0.73,1.63,1.63,1.63
						s1.63-0.73,1.63-1.63C52.82,17.65,52.08,16.92,51.18,16.92z"/>
				</g>
				<g>
					<path class="st0" d="M36.82,28.11c-1.63,0-2.95-1.32-2.95-2.95c0-1.63,1.32-2.95,2.95-2.95c1.63,0,2.95,1.32,2.95,2.95
						C39.77,26.79,38.44,28.11,36.82,28.11z M36.82,23.53c-0.9,0-1.63,0.73-1.63,1.63c0,0.9,0.73,1.63,1.63,1.63
						s1.63-0.73,1.63-1.63C38.45,24.26,37.72,23.53,36.82,23.53z"/>
				</g>
				<g>
					<path class="st0" d="M29.19,19.93c-1.63,0-2.95-1.32-2.95-2.95c0-1.63,1.32-2.95,2.95-2.95c1.63,0,2.95,1.32,2.95,2.95
						C32.14,18.6,30.82,19.93,29.19,19.93z M29.19,15.34c-0.9,0-1.63,0.73-1.63,1.63c0,0.9,0.73,1.63,1.63,1.63
						c0.9,0,1.63-0.73,1.63-1.63C30.83,16.08,30.09,15.34,29.19,15.34z"/>
				</g>
				<g>
					<path class="st0" d="M23.89,15.56c-1.63,0-2.95-1.32-2.95-2.95c0-1.63,1.32-2.95,2.95-2.95c1.63,0,2.95,1.32,2.95,2.95
						C26.84,14.23,25.51,15.56,23.89,15.56z M23.89,10.97c-0.9,0-1.63,0.73-1.63,1.63c0,0.9,0.73,1.63,1.63,1.63
						c0.9,0,1.63-0.73,1.63-1.63C25.52,11.71,24.79,10.97,23.89,10.97z"/>
				</g>
				<g>
					<path class="st0" d="M13.88,9.28c-1.63,0-2.95-1.32-2.95-2.95c0-1.63,1.32-2.95,2.95-2.95c1.63,0,2.95,1.32,2.95,2.95
						C16.83,7.95,15.5,9.28,13.88,9.28z M13.88,4.69c-0.9,0-1.63,0.73-1.63,1.63c0,0.9,0.73,1.63,1.63,1.63
						c0.9,0,1.63-0.73,1.63-1.63C15.51,5.42,14.78,4.69,13.88,4.69z"/>
				</g>
				<g>
					<path class="st0" d="M17.4,14.96c-1.63,0-2.95-1.32-2.95-2.95c0-1.63,1.32-2.95,2.95-2.95c1.63,0,2.95,1.32,2.95,2.95
						C20.35,13.63,19.03,14.96,17.4,14.96z M17.4,10.37c-0.9,0-1.63,0.73-1.63,1.63c0,0.9,0.73,1.63,1.63,1.63
						c0.9,0,1.63-0.73,1.63-1.63C19.03,11.11,18.3,10.37,17.4,10.37z"/>
				</g>
				<g>
					<path class="st0" d="M30.58,32.7c-1.63,0-2.95-1.32-2.95-2.95c0-1.63,1.32-2.95,2.95-2.95c1.63,0,2.95,1.32,2.95,2.95
						C33.53,31.37,32.2,32.7,30.58,32.7z M30.58,28.11c-0.9,0-1.63,0.73-1.63,1.63c0,0.9,0.73,1.63,1.63,1.63s1.63-0.73,1.63-1.63
						C32.21,28.84,31.48,28.11,30.58,28.11z"/>
				</g>
				<g>
					<path class="st0" d="M2.95,44.42C1.32,44.42,0,43.1,0,41.47c0-1.63,1.32-2.95,2.95-2.95c1.63,0,2.95,1.32,2.95,2.95
						C5.9,43.1,4.58,44.42,2.95,44.42z M2.95,39.84c-0.9,0-1.63,0.73-1.63,1.63c0,0.9,0.73,1.63,1.63,1.63
						c0.9,0,1.63-0.73,1.63-1.63C4.58,40.57,3.85,39.84,2.95,39.84z"/>
				</g>
			</g>
			<g>
				<g>
					
						<rect x="15.09" y="8.24" transform="matrix(0.8467 -0.5321 0.5321 0.8467 -2.5857 9.6306)" class="st0" width="0.66" height="2.13"/>
				</g>
				<g>
					
						<rect x="20.31" y="11.41" transform="matrix(0.0454 -0.999 0.999 0.0454 7.3353 32.4299)" class="st0" width="0.66" height="1.94"/>
				</g>
				<g>
					<polygon class="st0" points="27.36,15.63 25.54,14.21 25.95,13.69 27.76,15.11 					"/>
				</g>
				<g>
					
						<rect x="29.69" y="19.21" transform="matrix(0.9957 -0.0929 0.0929 0.9957 -2.0387 2.8899)" class="st0" width="0.66" height="8.26"/>
				</g>
				<g>
					
						<rect x="32.14" y="27.16" transform="matrix(0.7814 -0.6241 0.6241 0.7814 -9.7841 27.0589)" class="st0" width="3.16" height="0.66"/>
				</g>
				<g>
					
						<rect x="40.01" y="24.07" transform="matrix(0.1254 -0.9921 0.9921 0.1254 10.1635 62.1612)" class="st0" width="0.66" height="2.48"/>
				</g>
				<g>
					
						<rect x="44.49" y="22.11" transform="matrix(0.6738 -0.7389 0.7389 0.6738 -1.076 42.4406)" class="st0" width="6.08" height="0.66"/>
				</g>
				<g>
					
						<rect x="53.99" y="19.81" transform="matrix(0.8948 -0.4464 0.4464 0.8948 -4.6321 26.6862)" class="st0" width="0.66" height="6.73"/>
				</g>
				<g>
					<polygon class="st0" points="63.82,28.46 59.5,28.34 59.52,27.68 63.84,27.8 					"/>
				</g>
				<g>
					
						<rect x="33.23" y="30.71" transform="matrix(0.6274 -0.7787 0.7787 0.6274 -12.7655 38.2209)" class="st0" width="0.66" height="3.47"/>
				</g>
				<g>
					
						<rect x="37.28" y="30.39" transform="matrix(0.6024 -0.7982 0.7982 0.6024 -8.3764 44.6319)" class="st0" width="6.66" height="0.66"/>
				</g>
				<g>
					
						<rect x="3.76" y="34.66" transform="matrix(0.9121 -0.41 0.41 0.9121 -12.888 9.8741)" class="st0" width="25.65" height="0.66"/>
				</g>
				<g>
					<polygon class="st0" points="8.43,53.69 3.63,43.69 4.23,43.4 9.02,53.41 					"/>
				</g>
				<g>
					
						<rect x="11.35" y="57.28" transform="matrix(0.8221 -0.5694 0.5694 0.8221 -31.1854 17.0462)" class="st0" width="0.66" height="2.28"/>
				</g>
				<g>
					
						<rect x="16.42" y="62.83" transform="matrix(0.8948 -0.4464 0.4464 0.8948 -28.4386 14.5938)" class="st0" width="0.66" height="9.64"/>
				</g>
				<g>
					
						<rect x="21.23" y="69.15" transform="matrix(0.868 -0.4965 0.4965 0.868 -30.8976 22.7113)" class="st0" width="12.1" height="0.66"/>
				</g>
				<g>
					
						<rect x="29.59" y="66.95" transform="matrix(0.0732 -0.9973 0.9973 0.0732 -46.4769 98.7878)" class="st0" width="0.66" height="14.91"/>
				</g>
				<g>
					
						<rect x="58.02" y="30.12" transform="matrix(0.9975 -0.0701 0.0701 0.9975 -2.2379 4.1768)" class="st0" width="0.66" height="7.67"/>
				</g>
				<g>
					
						<rect x="61.29" y="41.19" transform="matrix(0.6812 -0.7321 0.7321 0.6812 -12.1282 58.9481)" class="st0" width="0.66" height="4.42"/>
				</g>
				<g>
					
						<rect x="66.69" y="23.86" transform="matrix(0.716 -0.6981 0.6981 0.716 3.1913 56.2179)" class="st0" width="8.01" height="0.66"/>
				</g>
				<g>
					
						<rect x="49.11" y="10.45" transform="matrix(0.5249 -0.8512 0.8512 0.5249 17.394 52.7251)" class="st0" width="13.63" height="0.66"/>
				</g>
			</g>
		</g>
		<circle class="st0" cx="65.01" cy="46.36" r="2.75"/>
		<path class="st0" d="M68.85,28.48c0-1.52-1.23-2.75-2.75-2.75c-1.52,0-2.75,1.23-2.75,2.75c0,1.52,1.23,2.75,2.75,2.75
			C67.61,31.23,68.85,30,68.85,28.48z"/>
		<path class="st0" d="M77.99,19.83c0-1.52-1.23-2.75-2.75-2.75c-1.52,0-2.75,1.23-2.75,2.75c0,1.52,1.23,2.75,2.75,2.75
			C76.75,22.58,77.99,21.35,77.99,19.83z"/>
		<path class="st0" d="M61.37,40.07c0-1.52-1.23-2.75-2.75-2.75c-1.52,0-2.75,1.23-2.75,2.75c0,1.52,1.23,2.75,2.75,2.75
			C60.14,42.82,61.37,41.59,61.37,40.07z"/>
		<circle class="st0" cx="57.21" cy="28.01" r="2.75"/>
		<circle class="st0" cx="43.75" cy="26.19" r="2.75"/>
		<path class="st0" d="M39.57,34.81c0-1.52-1.23-2.75-2.75-2.75c-1.52,0-2.75,1.23-2.75,2.75c0,1.52,1.23,2.75,2.75,2.75
			C38.33,37.56,39.57,36.33,39.57,34.81z"/>
		<circle class="st0" cx="10.04" cy="55.43" r="2.75"/>
		<circle class="st0" cx="20.19" cy="73.86" r="2.75"/>
		<circle class="st0" cx="39.64" cy="74.95" r="2.75"/>
		<path class="st0" d="M16.31,61.29c0-1.52-1.23-2.75-2.75-2.75c-1.52,0-2.75,1.23-2.75,2.75c0,1.52,1.23,2.75,2.75,2.75
			C15.08,64.04,16.31,62.81,16.31,61.29z"/>
		<path class="st0" d="M37.27,65.35c0-1.52-1.23-2.75-2.75-2.75c-1.52,0-2.75,1.23-2.75,2.75c0,1.52,1.23,2.75,2.75,2.75
			C36.04,68.1,37.27,66.87,37.27,65.35z"/>
		<path class="st0" d="M63.67,2.95c0-1.52-1.23-2.75-2.75-2.75c-1.52,0-2.75,1.23-2.75,2.75c0,1.52,1.23,2.75,2.75,2.75
			C62.43,5.7,63.67,4.47,63.67,2.95z"/>
		<circle class="st0" cx="51.18" cy="18.56" r="2.75"/>
		<path class="st0" d="M39.57,25.16c0-1.52-1.23-2.75-2.75-2.75c-1.52,0-2.75,1.23-2.75,2.75s1.23,2.75,2.75,2.75
			C38.33,27.91,39.57,26.68,39.57,25.16z"/>
		<circle class="st0" cx="29.19" cy="16.98" r="2.75"/>
		<circle class="st0" cx="23.89" cy="12.61" r="2.75"/>
		<path class="st0" d="M16.63,6.33c0-1.52-1.23-2.75-2.75-2.75s-2.75,1.23-2.75,2.75c0,1.52,1.23,2.75,2.75,2.75
			S16.63,7.85,16.63,6.33z"/>
		<circle class="st0" cx="17.4" cy="12.01" r="2.75"/>
		<circle class="st0" cx="30.58" cy="29.74" r="2.75"/>
		<circle class="st0" cx="2.95" cy="41.47" r="2.75"/>
		<g>
			
				<rect x="15.09" y="8.24" transform="matrix(0.8467 -0.5321 0.5321 0.8467 -2.5857 9.6306)" class="st0" width="0.66" height="2.13"/>
		</g>
		<g>
			
				<rect x="20.31" y="11.41" transform="matrix(0.0454 -0.999 0.999 0.0454 7.3353 32.4299)" class="st0" width="0.66" height="1.94"/>
		</g>
		<g>
			<polygon class="st0" points="27.36,15.63 25.54,14.21 25.95,13.69 27.76,15.11 			"/>
		</g>
		<g>
			
				<rect x="29.69" y="19.21" transform="matrix(0.9957 -0.0929 0.0929 0.9957 -2.0387 2.8899)" class="st0" width="0.66" height="8.26"/>
		</g>
		<g>
			
				<rect x="32.14" y="27.16" transform="matrix(0.7814 -0.6241 0.6241 0.7814 -9.7841 27.0589)" class="st0" width="3.16" height="0.66"/>
		</g>
		<g>
			
				<rect x="40.01" y="24.07" transform="matrix(0.1254 -0.9921 0.9921 0.1254 10.1635 62.1612)" class="st0" width="0.66" height="2.48"/>
		</g>
		<g>
			
				<rect x="44.49" y="22.11" transform="matrix(0.6738 -0.7389 0.7389 0.6738 -1.076 42.4406)" class="st0" width="6.08" height="0.66"/>
		</g>
		<g>
			
				<rect x="53.99" y="19.81" transform="matrix(0.8948 -0.4464 0.4464 0.8948 -4.6321 26.6862)" class="st0" width="0.66" height="6.73"/>
		</g>
		<g>
			<polygon class="st0" points="63.82,28.46 59.5,28.34 59.52,27.68 63.84,27.8 			"/>
		</g>
		<g>
			
				<rect x="33.23" y="30.71" transform="matrix(0.6274 -0.7787 0.7787 0.6274 -12.7655 38.2209)" class="st0" width="0.66" height="3.47"/>
		</g>
		<g>
			
				<rect x="37.28" y="30.39" transform="matrix(0.6024 -0.7982 0.7982 0.6024 -8.3764 44.6319)" class="st0" width="6.66" height="0.66"/>
		</g>
		<g>
			
				<rect x="3.76" y="34.66" transform="matrix(0.9121 -0.41 0.41 0.9121 -12.888 9.8741)" class="st0" width="25.65" height="0.66"/>
		</g>
		<g>
			<polygon class="st0" points="8.43,53.69 3.63,43.69 4.23,43.4 9.02,53.41 			"/>
		</g>
		<g>
			
				<rect x="11.35" y="57.28" transform="matrix(0.8221 -0.5694 0.5694 0.8221 -31.1854 17.0462)" class="st0" width="0.66" height="2.28"/>
		</g>
		<g>
			
				<rect x="16.42" y="62.83" transform="matrix(0.8948 -0.4464 0.4464 0.8948 -28.4386 14.5938)" class="st0" width="0.66" height="9.64"/>
		</g>
		<g>
			
				<rect x="21.23" y="69.15" transform="matrix(0.868 -0.4965 0.4965 0.868 -30.8976 22.7113)" class="st0" width="12.1" height="0.66"/>
		</g>
		<g>
			
				<rect x="29.59" y="66.95" transform="matrix(0.0732 -0.9973 0.9973 0.0732 -46.4769 98.7878)" class="st0" width="0.66" height="14.91"/>
		</g>
		<g>
			
				<rect x="58.02" y="30.12" transform="matrix(0.9975 -0.0701 0.0701 0.9975 -2.2379 4.1768)" class="st0" width="0.66" height="7.67"/>
		</g>
		<g>
			
				<rect x="61.29" y="41.19" transform="matrix(0.6812 -0.7321 0.7321 0.6812 -12.1282 58.9481)" class="st0" width="0.66" height="4.42"/>
		</g>
		<g>
			
				<rect x="66.69" y="23.86" transform="matrix(0.716 -0.6981 0.6981 0.716 3.1913 56.2179)" class="st0" width="8.01" height="0.66"/>
		</g>
		<g>
			
				<rect x="49.11" y="10.45" transform="matrix(0.5249 -0.8512 0.8512 0.5249 17.394 52.7251)" class="st0" width="13.63" height="0.66"/>
		</g>
	</g>
</g>
</svg>
