<?xml version="1.0" encoding="utf-8"?>
<!-- Generator: Adobe Illustrator 27.9.2, SVG Export Plug-In . SVG Version: 6.00 Build 0)  -->
<svg version="1.1" id="Layer_1" xmlns="http://www.w3.org/2000/svg" xmlns:xlink="http://www.w3.org/1999/xlink" x="0px" y="0px"
	 viewBox="0 0 53.97 77.77" style="enable-background:new 0 0 53.97 77.77;" xml:space="preserve">
<style type="text/css">
	.st0{fill:#FFFFFF;}
</style>
<g>
	<g>
		<g>
			<g>
				<g>
					<path class="st0" d="M41.96,5.9c-1.63,0-2.95-1.32-2.95-2.95c0-1.63,1.32-2.95,2.95-2.95c1.63,0,2.95,1.32,2.95,2.95
						C44.91,4.58,43.59,5.9,41.96,5.9z M41.96,1.32c-0.9,0-1.63,0.73-1.63,1.63c0,0.9,0.73,1.63,1.63,1.63
						c0.9,0,1.63-0.73,1.63-1.63C43.6,2.05,42.86,1.32,41.96,1.32z"/>
				</g>
				<g>
					<path class="st0" d="M30.56,31.47c-1.63,0-2.95-1.32-2.95-2.95c0-1.63,1.32-2.95,2.95-2.95c1.63,0,2.95,1.32,2.95,2.95
						C33.51,30.15,32.19,31.47,30.56,31.47z M30.56,26.89c-0.9,0-1.63,0.73-1.63,1.63c0,0.9,0.73,1.63,1.63,1.63
						c0.9,0,1.63-0.73,1.63-1.63C32.2,27.62,31.46,26.89,30.56,26.89z"/>
				</g>
				<g>
					<path class="st0" d="M30.56,65.22c-1.63,0-2.95-1.32-2.95-2.95c0-1.63,1.32-2.95,2.95-2.95c1.63,0,2.95,1.32,2.95,2.95
						C33.51,63.9,32.19,65.22,30.56,65.22z M30.56,60.64c-0.9,0-1.63,0.73-1.63,1.63c0,0.9,0.73,1.63,1.63,1.63
						c0.9,0,1.63-0.73,1.63-1.63C32.2,61.37,31.46,60.64,30.56,60.64z"/>
				</g>
				<g>
					<path class="st0" d="M11.5,77.77c-1.63,0-2.95-1.32-2.95-2.95c0-1.63,1.32-2.95,2.95-2.95c1.63,0,2.95,1.32,2.95,2.95
						C14.45,76.45,13.13,77.77,11.5,77.77z M11.5,73.19c-0.9,0-1.63,0.73-1.63,1.63c0,0.9,0.73,1.63,1.63,1.63
						c0.9,0,1.63-0.73,1.63-1.63C13.14,73.92,12.4,73.19,11.5,73.19z"/>
				</g>
				<g>
					<path class="st0" d="M15.17,62.93c-1.63,0-2.95-1.32-2.95-2.95c0-1.63,1.32-2.95,2.95-2.95c1.63,0,2.95,1.32,2.95,2.95
						C18.12,61.61,16.8,62.93,15.17,62.93z M15.17,58.34c-0.9,0-1.63,0.73-1.63,1.63c0,0.9,0.73,1.63,1.63,1.63
						c0.9,0,1.63-0.73,1.63-1.63C16.8,59.08,16.07,58.34,15.17,58.34z"/>
				</g>
				<g>
					<path class="st0" d="M2.95,66.43C1.32,66.43,0,65.11,0,63.48c0-1.63,1.32-2.95,2.95-2.95c1.63,0,2.95,1.32,2.95,2.95
						C5.9,65.11,4.58,66.43,2.95,66.43z M2.95,61.84c-0.9,0-1.63,0.73-1.63,1.63c0,0.9,0.73,1.63,1.63,1.63
						c0.9,0,1.63-0.73,1.63-1.63C4.59,62.58,3.85,61.84,2.95,61.84z"/>
				</g>
				<g>
					<path class="st0" d="M22.9,74.55c-1.63,0-2.95-1.32-2.95-2.95c0-1.63,1.32-2.95,2.95-2.95c1.63,0,2.95,1.32,2.95,2.95
						C25.85,73.23,24.53,74.55,22.9,74.55z M22.9,69.97c-0.9,0-1.63,0.73-1.63,1.63c0,0.9,0.73,1.63,1.63,1.63s1.63-0.73,1.63-1.63
						C24.53,70.7,23.8,69.97,22.9,69.97z"/>
				</g>
				<g>
					<path class="st0" d="M2.95,74.01C1.32,74.01,0,72.68,0,71.06s1.32-2.95,2.95-2.95c1.63,0,2.95,1.32,2.95,2.95
						S4.58,74.01,2.95,74.01z M2.95,69.42c-0.9,0-1.63,0.73-1.63,1.63c0,0.9,0.73,1.63,1.63,1.63c0.9,0,1.63-0.73,1.63-1.63
						C4.59,70.15,3.85,69.42,2.95,69.42z"/>
				</g>
				<g>
					<path class="st0" d="M8.63,60.64c-1.63,0-2.95-1.32-2.95-2.95c0-1.63,1.32-2.95,2.95-2.95c1.63,0,2.95,1.32,2.95,2.95
						C11.58,59.31,10.25,60.64,8.63,60.64z M8.63,56.05c-0.9,0-1.63,0.73-1.63,1.63c0,0.9,0.73,1.63,1.63,1.63
						c0.9,0,1.63-0.73,1.63-1.63C10.26,56.79,9.53,56.05,8.63,56.05z"/>
				</g>
				<g>
					<path class="st0" d="M51.02,22.93c-1.63,0-2.95-1.32-2.95-2.95c0-1.63,1.32-2.95,2.95-2.95c1.63,0,2.95,1.32,2.95,2.95
						C53.97,21.61,52.65,22.93,51.02,22.93z M51.02,18.35c-0.9,0-1.63,0.73-1.63,1.63c0,0.9,0.73,1.63,1.63,1.63
						c0.9,0,1.63-0.73,1.63-1.63C52.65,19.08,51.92,18.35,51.02,18.35z"/>
				</g>
				<g>
					<path class="st0" d="M48.73,13.68c-1.63,0-2.95-1.32-2.95-2.95c0-1.63,1.32-2.95,2.95-2.95c1.63,0,2.95,1.32,2.95,2.95
						C51.68,12.36,50.35,13.68,48.73,13.68z M48.73,9.1c-0.9,0-1.63,0.73-1.63,1.63c0,0.9,0.73,1.63,1.63,1.63
						c0.9,0,1.63-0.73,1.63-1.63C50.36,9.83,49.63,9.1,48.73,9.1z"/>
				</g>
				<g>
					<path class="st0" d="M37.38,22.93c-1.63,0-2.95-1.32-2.95-2.95c0-1.63,1.32-2.95,2.95-2.95s2.95,1.32,2.95,2.95
						C40.33,21.61,39,22.93,37.38,22.93z M37.38,18.35c-0.9,0-1.63,0.73-1.63,1.63c0,0.9,0.73,1.63,1.63,1.63
						c0.9,0,1.63-0.73,1.63-1.63C39.01,19.08,38.28,18.35,37.38,18.35z"/>
				</g>
				<g>
					<path class="st0" d="M27.48,48.73c-1.63,0-2.95-1.32-2.95-2.95c0-1.63,1.32-2.95,2.95-2.95c1.63,0,2.95,1.32,2.95,2.95
						C30.43,47.41,29.11,48.73,27.48,48.73z M27.48,44.15c-0.9,0-1.63,0.73-1.63,1.63c0,0.9,0.73,1.64,1.63,1.64
						c0.9,0,1.63-0.73,1.63-1.64C29.12,44.88,28.38,44.15,27.48,44.15z"/>
				</g>
				<g>
					<path class="st0" d="M32.07,71.71c-1.63,0-2.95-1.32-2.95-2.95c0-1.63,1.32-2.95,2.95-2.95c1.63,0,2.95,1.32,2.95,2.95
						C35.02,70.39,33.7,71.71,32.07,71.71z M32.07,67.13c-0.9,0-1.63,0.73-1.63,1.63c0,0.9,0.73,1.63,1.63,1.63
						c0.9,0,1.63-0.73,1.63-1.63C33.7,67.86,32.97,67.13,32.07,67.13z"/>
				</g>
			</g>
			<g>
				<g>
					
						<rect x="37.91" y="14.9" transform="matrix(0.7768 -0.6297 0.6297 0.7768 -5.383638e-03 30.4424)" class="st0" width="10.07" height="0.66"/>
				</g>
				<g>
					
						<rect x="33.02" y="11.11" transform="matrix(0.2627 -0.9649 0.9649 0.2627 18.1299 46.5984)" class="st0" width="13.06" height="0.66"/>
				</g>
				<g>
					<rect x="39.67" y="19.65" class="st0" width="9.06" height="0.66"/>
				</g>
				<g>
					
						<rect x="30.74" y="23.88" transform="matrix(0.5819 -0.8132 0.8132 0.5819 -5.5067 37.7087)" class="st0" width="6.37" height="0.66"/>
				</g>
				<g>
					
						<rect x="22.31" y="36.77" transform="matrix(0.1486 -0.9889 0.9889 0.1486 -12.1556 60.0767)" class="st0" width="12.99" height="0.66"/>
				</g>
				<g>
					
						<rect x="28.43" y="47.94" transform="matrix(0.978 -0.2085 0.2085 0.978 -10.6412 7.1862)" class="st0" width="0.66" height="12.24"/>
				</g>
				<g>
					
						<rect x="30.99" y="64.48" transform="matrix(0.9763 -0.2166 0.2166 0.9763 -13.4501 8.3412)" class="st0" width="0.66" height="2.08"/>
				</g>
				<g>
					<polygon class="st0" points="25.22,71.37 25.03,70.74 29.85,69.3 30.03,69.93 					"/>
				</g>
				<g>
					
						<rect x="13.6" y="73.01" transform="matrix(0.9577 -0.2877 0.2877 0.9577 -20.3679 8.0567)" class="st0" width="7.27" height="0.66"/>
				</g>
				<g>
					
						<rect x="6.65" y="71" transform="matrix(0.377 -0.9262 0.9262 0.377 -63.6885 52.2285)" class="st0" width="0.66" height="4.91"/>
				</g>
				<g>
					
						<rect x="1.31" y="66.95" transform="matrix(0.0863 -0.9963 0.9963 0.0863 -64.4482 64.2752)" class="st0" width="3.02" height="0.66"/>
				</g>
				<g>
					
						<rect x="3.81" y="60.05" transform="matrix(0.6706 -0.7418 0.7418 0.6706 -42.9488 24.0418)" class="st0" width="3.57" height="0.66"/>
				</g>
				<g>
					
						<rect x="11.54" y="57.73" transform="matrix(0.3404 -0.9403 0.9403 0.3404 -47.5611 50.0171)" class="st0" width="0.66" height="2.35"/>
				</g>
			</g>
		</g>
		<circle class="st0" cx="41.96" cy="2.95" r="2.75"/>
		<circle class="st0" cx="30.56" cy="28.52" r="2.75"/>
		<circle class="st0" cx="30.56" cy="62.27" r="2.75"/>
		<circle class="st0" cx="11.5" cy="74.82" r="2.75"/>
		<path class="st0" d="M17.92,59.98c0-1.52-1.23-2.75-2.75-2.75c-1.52,0-2.75,1.23-2.75,2.75c0,1.52,1.23,2.75,2.75,2.75
			C16.69,62.73,17.92,61.5,17.92,59.98z"/>
		<path class="st0" d="M5.7,63.48c0-1.52-1.23-2.75-2.75-2.75S0.2,61.96,0.2,63.48c0,1.52,1.23,2.75,2.75,2.75S5.7,65,5.7,63.48z"/>
		<circle class="st0" cx="22.9" cy="71.6" r="2.75"/>
		<circle class="st0" cx="2.95" cy="71.06" r="2.75"/>
		<path class="st0" d="M11.38,57.69c0-1.52-1.23-2.75-2.75-2.75c-1.52,0-2.75,1.23-2.75,2.75s1.23,2.75,2.75,2.75
			C10.15,60.44,11.38,59.21,11.38,57.69z"/>
		<circle class="st0" cx="51.02" cy="19.98" r="2.75"/>
		<path class="st0" d="M51.48,10.73c0-1.52-1.23-2.75-2.75-2.75c-1.52,0-2.75,1.23-2.75,2.75c0,1.52,1.23,2.75,2.75,2.75
			C50.25,13.48,51.48,12.25,51.48,10.73z"/>
		<circle class="st0" cx="37.38" cy="19.98" r="2.75"/>
		<path class="st0" d="M30.23,45.78c0-1.52-1.23-2.75-2.75-2.75s-2.75,1.23-2.75,2.75c0,1.52,1.23,2.75,2.75,2.75
			S30.23,47.3,30.23,45.78z"/>
		<circle class="st0" cx="32.07" cy="68.76" r="2.75"/>
		<g>
			
				<rect x="37.91" y="14.9" transform="matrix(0.7768 -0.6297 0.6297 0.7768 -5.383638e-03 30.4424)" class="st0" width="10.07" height="0.66"/>
		</g>
		<g>
			
				<rect x="33.02" y="11.11" transform="matrix(0.2627 -0.9649 0.9649 0.2627 18.1299 46.5984)" class="st0" width="13.06" height="0.66"/>
		</g>
		<g>
			<rect x="39.67" y="19.65" class="st0" width="9.06" height="0.66"/>
		</g>
		<g>
			
				<rect x="30.74" y="23.88" transform="matrix(0.5819 -0.8132 0.8132 0.5819 -5.5067 37.7087)" class="st0" width="6.37" height="0.66"/>
		</g>
		<g>
			
				<rect x="22.31" y="36.77" transform="matrix(0.1486 -0.9889 0.9889 0.1486 -12.1556 60.0767)" class="st0" width="12.99" height="0.66"/>
		</g>
		<g>
			
				<rect x="28.43" y="47.94" transform="matrix(0.978 -0.2085 0.2085 0.978 -10.6412 7.1862)" class="st0" width="0.66" height="12.24"/>
		</g>
		<g>
			
				<rect x="30.99" y="64.48" transform="matrix(0.9763 -0.2166 0.2166 0.9763 -13.4501 8.3412)" class="st0" width="0.66" height="2.08"/>
		</g>
		<g>
			<polygon class="st0" points="25.22,71.37 25.03,70.74 29.85,69.3 30.03,69.93 			"/>
		</g>
		<g>
			
				<rect x="13.6" y="73.01" transform="matrix(0.9577 -0.2877 0.2877 0.9577 -20.3679 8.0567)" class="st0" width="7.27" height="0.66"/>
		</g>
		<g>
			
				<rect x="6.65" y="71" transform="matrix(0.377 -0.9262 0.9262 0.377 -63.6885 52.2285)" class="st0" width="0.66" height="4.91"/>
		</g>
		<g>
			
				<rect x="1.31" y="66.95" transform="matrix(0.0863 -0.9963 0.9963 0.0863 -64.4482 64.2752)" class="st0" width="3.02" height="0.66"/>
		</g>
		<g>
			
				<rect x="3.81" y="60.05" transform="matrix(0.6706 -0.7418 0.7418 0.6706 -42.9488 24.0418)" class="st0" width="3.57" height="0.66"/>
		</g>
		<g>
			
				<rect x="11.54" y="57.73" transform="matrix(0.3404 -0.9403 0.9403 0.3404 -47.5611 50.0171)" class="st0" width="0.66" height="2.35"/>
		</g>
	</g>
</g>
</svg>
