<?xml version="1.0" encoding="utf-8"?>
<!-- Generator: Adobe Illustrator 27.9.2, SVG Export Plug-In . SVG Version: 6.00 Build 0)  -->
<svg version="1.1" id="Layer_1" xmlns="http://www.w3.org/2000/svg" xmlns:xlink="http://www.w3.org/1999/xlink" x="0px" y="0px"
	 viewBox="0 0 72.22 65.21" style="enable-background:new 0 0 72.22 65.21;" xml:space="preserve">
<style type="text/css">
	.st0{fill:#FFFFFF;}
</style>
<g>
	<g>
		<g>
			<g>
				<g>
					<path class="st0" d="M2.95,18.52C1.32,18.52,0,17.2,0,15.57c0-1.63,1.32-2.95,2.95-2.95c1.63,0,2.95,1.32,2.95,2.95
						C5.9,17.2,4.58,18.52,2.95,18.52z M2.95,13.93c-0.9,0-1.63,0.73-1.63,1.63c0,0.9,0.73,1.63,1.63,1.63s1.63-0.73,1.63-1.63
						C4.59,14.67,3.85,13.93,2.95,13.93z"/>
				</g>
				<g>
					<path class="st0" d="M35.12,27.26c-1.63,0-2.95-1.32-2.95-2.95c0-1.63,1.32-2.95,2.95-2.95c1.63,0,2.95,1.32,2.95,2.95
						C38.07,25.94,36.75,27.26,35.12,27.26z M35.12,22.68c-0.9,0-1.63,0.73-1.63,1.63s0.73,1.63,1.63,1.63
						c0.9,0,1.63-0.73,1.63-1.63S36.02,22.68,35.12,22.68z"/>
				</g>
				<g>
					<path class="st0" d="M29.85,36.83c-1.63,0-2.95-1.32-2.95-2.95c0-1.63,1.32-2.95,2.95-2.95c1.63,0,2.95,1.32,2.95,2.95
						C32.8,35.5,31.47,36.83,29.85,36.83z M29.85,32.24c-0.9,0-1.63,0.73-1.63,1.63c0,0.9,0.73,1.63,1.63,1.63
						c0.9,0,1.63-0.73,1.63-1.63C31.48,32.97,30.75,32.24,29.85,32.24z"/>
				</g>
				<g>
					<path class="st0" d="M39.86,35c-1.63,0-2.95-1.32-2.95-2.95c0-1.63,1.32-2.95,2.95-2.95s2.95,1.32,2.95,2.95
						C42.81,33.67,41.49,35,39.86,35z M39.86,30.41c-0.9,0-1.63,0.73-1.63,1.63c0,0.9,0.73,1.63,1.63,1.63
						c0.9,0,1.63-0.73,1.63-1.63C41.5,31.15,40.76,30.41,39.86,30.41z"/>
				</g>
				<g>
					<path class="st0" d="M35.83,40.95c-1.63,0-2.95-1.32-2.95-2.95c0-1.63,1.32-2.95,2.95-2.95c1.63,0,2.95,1.32,2.95,2.95
						C38.78,39.62,37.46,40.95,35.83,40.95z M35.83,36.36c-0.9,0-1.63,0.73-1.63,1.63c0,0.9,0.73,1.63,1.63,1.63
						c0.9,0,1.63-0.73,1.63-1.63C37.46,37.09,36.73,36.36,35.83,36.36z"/>
				</g>
				<g>
					<path class="st0" d="M43.4,43.24c-1.63,0-2.95-1.32-2.95-2.95c0-1.63,1.32-2.95,2.95-2.95c1.63,0,2.95,1.32,2.95,2.95
						C46.35,41.91,45.03,43.24,43.4,43.24z M43.4,38.65c-0.9,0-1.63,0.73-1.63,1.63c0,0.9,0.73,1.63,1.63,1.63
						c0.9,0,1.63-0.73,1.63-1.63C45.04,39.39,44.3,38.65,43.4,38.65z"/>
				</g>
				<g>
					<path class="st0" d="M50.08,51.95c-1.63,0-2.95-1.32-2.95-2.95c0-1.63,1.32-2.95,2.95-2.95c1.63,0,2.95,1.32,2.95,2.95
						C53.03,50.63,51.7,51.95,50.08,51.95z M50.08,47.37c-0.9,0-1.63,0.73-1.63,1.63c0,0.9,0.73,1.63,1.63,1.63
						c0.9,0,1.63-0.73,1.63-1.63C51.71,48.1,50.98,47.37,50.08,47.37z"/>
				</g>
				<g>
					<path class="st0" d="M65.02,59.48c-1.63,0-2.95-1.32-2.95-2.95c0-1.63,1.32-2.95,2.95-2.95c1.63,0,2.95,1.32,2.95,2.95
						C67.97,58.15,66.65,59.48,65.02,59.48z M65.02,54.89c-0.9,0-1.63,0.73-1.63,1.63c0,0.9,0.73,1.63,1.63,1.63
						c0.9,0,1.63-0.73,1.63-1.63C66.66,55.63,65.92,54.89,65.02,54.89z"/>
				</g>
				<g>
					<path class="st0" d="M69.27,65.21c-1.63,0-2.95-1.32-2.95-2.95c0-1.63,1.32-2.95,2.95-2.95c1.63,0,2.95,1.32,2.95,2.95
						C72.22,63.89,70.9,65.21,69.27,65.21z M69.27,60.62c-0.9,0-1.63,0.73-1.63,1.63c0,0.9,0.73,1.63,1.63,1.63s1.63-0.73,1.63-1.63
						C70.91,61.36,70.18,60.62,69.27,60.62z"/>
				</g>
				<g>
					<path class="st0" d="M15.02,5.9c-1.63,0-2.95-1.32-2.95-2.95c0-1.63,1.32-2.95,2.95-2.95c1.63,0,2.95,1.32,2.95,2.95
						C17.97,4.58,16.64,5.9,15.02,5.9z M15.02,1.32c-0.9,0-1.63,0.73-1.63,1.63c0,0.9,0.73,1.63,1.63,1.63
						c0.9,0,1.63-0.73,1.63-1.63C16.65,2.05,15.92,1.32,15.02,1.32z"/>
				</g>
			</g>
			<g>
				<g>
					
						<rect x="16.21" y="10.54" transform="matrix(0.5576 -0.8301 0.8301 0.5576 -13.0415 24.5844)" class="st0" width="0.66" height="27.98"/>
				</g>
				<g>
					
						<rect x="24.83" y="1.15" transform="matrix(0.7363 -0.6767 0.6767 0.7363 -2.5258 20.5932)" class="st0" width="0.66" height="24.77"/>
				</g>
				<g>
					
						<rect x="37.26" y="25.85" transform="matrix(0.8885 -0.4589 0.4589 0.8885 -8.7075 20.3826)" class="st0" width="0.66" height="4.52"/>
				</g>
				<g>
					
						<rect x="32.64" y="34.39" transform="matrix(0.5606 -0.8281 0.8281 0.5606 -15.115 43.0068)" class="st0" width="0.66" height="2.7"/>
				</g>
				<g>
					
						<rect x="39.38" y="37.2" transform="matrix(0.0621 -0.9981 0.9981 0.0621 -1.6403 76.1729)" class="st0" width="0.66" height="3.52"/>
				</g>
				<g>
					
						<rect x="41.2" y="34.01" transform="matrix(0.9167 -0.3996 0.3996 0.9167 -11.0097 19.6107)" class="st0" width="0.66" height="4.39"/>
				</g>
				<g>
					
						<rect x="46.26" y="41.53" transform="matrix(0.8644 -0.5027 0.5027 0.8644 -16.2102 29.4983)" class="st0" width="0.66" height="6.55"/>
				</g>
				<g>
					<polygon class="st0" points="63.1,55.39 52,50.29 52.28,49.69 63.38,54.79 					"/>
				</g>
				<g>
					
						<rect x="67.12" y="57.85" transform="matrix(0.8134 -0.5818 0.5818 0.8134 -21.8294 50.2825)" class="st0" width="0.66" height="2.62"/>
				</g>
			</g>
		</g>
		<path class="st0" d="M5.7,15.57c0-1.52-1.23-2.75-2.75-2.75S0.2,14.05,0.2,15.57c0,1.52,1.23,2.75,2.75,2.75S5.7,17.09,5.7,15.57z
			"/>
		<circle class="st0" cx="35.12" cy="24.31" r="2.75"/>
		<path class="st0" d="M32.6,33.88c0-1.52-1.23-2.75-2.75-2.75c-1.52,0-2.75,1.23-2.75,2.75c0,1.52,1.23,2.75,2.75,2.75
			C31.37,36.63,32.6,35.4,32.6,33.88z"/>
		<path class="st0" d="M42.61,32.05c0-1.52-1.23-2.75-2.75-2.75c-1.52,0-2.75,1.23-2.75,2.75c0,1.52,1.23,2.75,2.75,2.75
			C41.38,34.8,42.61,33.57,42.61,32.05z"/>
		<circle class="st0" cx="35.83" cy="38" r="2.75"/>
		<path class="st0" d="M46.15,40.29c0-1.52-1.23-2.75-2.75-2.75c-1.52,0-2.75,1.23-2.75,2.75c0,1.52,1.23,2.75,2.75,2.75
			C44.92,43.04,46.15,41.81,46.15,40.29z"/>
		<path class="st0" d="M52.83,49c0-1.52-1.23-2.75-2.75-2.75c-1.52,0-2.75,1.23-2.75,2.75c0,1.52,1.23,2.75,2.75,2.75
			C51.6,51.75,52.83,50.52,52.83,49z"/>
		<circle class="st0" cx="65.02" cy="56.53" r="2.75"/>
		<path class="st0" d="M72.03,62.26c0-1.52-1.23-2.75-2.75-2.75c-1.52,0-2.75,1.23-2.75,2.75s1.23,2.75,2.75,2.75
			C70.79,65.01,72.03,63.78,72.03,62.26z"/>
		<path class="st0" d="M17.77,2.95c0-1.52-1.23-2.75-2.75-2.75s-2.75,1.23-2.75,2.75c0,1.52,1.23,2.75,2.75,2.75
			S17.77,4.47,17.77,2.95z"/>
		<g>
			
				<rect x="16.21" y="10.54" transform="matrix(0.5576 -0.8301 0.8301 0.5576 -13.0415 24.5844)" class="st0" width="0.66" height="27.98"/>
		</g>
		<g>
			
				<rect x="24.83" y="1.15" transform="matrix(0.7363 -0.6767 0.6767 0.7363 -2.5258 20.5932)" class="st0" width="0.66" height="24.77"/>
		</g>
		<g>
			
				<rect x="37.26" y="25.85" transform="matrix(0.8885 -0.4589 0.4589 0.8885 -8.7075 20.3826)" class="st0" width="0.66" height="4.52"/>
		</g>
		<g>
			
				<rect x="32.64" y="34.39" transform="matrix(0.5606 -0.8281 0.8281 0.5606 -15.115 43.0068)" class="st0" width="0.66" height="2.7"/>
		</g>
		<g>
			
				<rect x="39.38" y="37.2" transform="matrix(0.0621 -0.9981 0.9981 0.0621 -1.6403 76.1729)" class="st0" width="0.66" height="3.52"/>
		</g>
		<g>
			
				<rect x="41.2" y="34.01" transform="matrix(0.9167 -0.3996 0.3996 0.9167 -11.0097 19.6107)" class="st0" width="0.66" height="4.39"/>
		</g>
		<g>
			
				<rect x="46.26" y="41.53" transform="matrix(0.8644 -0.5027 0.5027 0.8644 -16.2102 29.4983)" class="st0" width="0.66" height="6.55"/>
		</g>
		<g>
			<polygon class="st0" points="63.1,55.39 52,50.29 52.28,49.69 63.38,54.79 			"/>
		</g>
		<g>
			
				<rect x="67.12" y="57.85" transform="matrix(0.8134 -0.5818 0.5818 0.8134 -21.8294 50.2825)" class="st0" width="0.66" height="2.62"/>
		</g>
	</g>
</g>
</svg>
