<?xml version="1.0" encoding="utf-8"?>
<!-- Generator: Adobe Illustrator 27.9.2, SVG Export Plug-In . SVG Version: 6.00 Build 0)  -->
<svg version="1.1" id="Layer_1" xmlns="http://www.w3.org/2000/svg" xmlns:xlink="http://www.w3.org/1999/xlink" x="0px" y="0px"
	 viewBox="0 0 56.95 86.81" style="enable-background:new 0 0 56.95 86.81;" xml:space="preserve">
<style type="text/css">
	.st0{fill:#FFFFFF;}
</style>
<g>
	<g>
		<g>
			<g>
				<g>
					<path class="st0" d="M54,48.79c-1.63,0-2.95-1.32-2.95-2.95c0-1.63,1.32-2.95,2.95-2.95c1.63,0,2.95,1.32,2.95,2.95
						C56.95,47.47,55.63,48.79,54,48.79z M54,44.21c-0.9,0-1.63,0.73-1.63,1.63c0,0.9,0.73,1.63,1.63,1.63
						c0.9,0,1.63-0.73,1.63-1.63C55.64,44.94,54.9,44.21,54,44.21z"/>
				</g>
				<g>
					<path class="st0" d="M54,68.7c-1.63,0-2.95-1.32-2.95-2.95c0-1.63,1.32-2.95,2.95-2.95c1.63,0,2.95,1.32,2.95,2.95
						C56.95,67.38,55.63,68.7,54,68.7z M54,64.12c-0.9,0-1.63,0.73-1.63,1.63c0,0.9,0.73,1.63,1.63,1.63c0.9,0,1.63-0.73,1.63-1.63
						C55.64,64.85,54.9,64.12,54,64.12z"/>
				</g>
				<g>
					<path class="st0" d="M42.43,41.87c-1.63,0-2.95-1.32-2.95-2.95c0-1.63,1.32-2.95,2.95-2.95c1.63,0,2.95,1.32,2.95,2.95
						C45.38,40.55,44.06,41.87,42.43,41.87z M42.43,37.29c-0.9,0-1.63,0.73-1.63,1.63c0,0.9,0.73,1.63,1.63,1.63
						c0.9,0,1.63-0.73,1.63-1.63C44.07,38.02,43.33,37.29,42.43,37.29z"/>
				</g>
				<g>
					<path class="st0" d="M28.82,52.38c-1.63,0-2.95-1.32-2.95-2.95c0-1.63,1.32-2.95,2.95-2.95c1.63,0,2.95,1.32,2.95,2.95
						C31.77,51.06,30.45,52.38,28.82,52.38z M28.82,47.79c-0.9,0-1.63,0.73-1.63,1.63c0,0.9,0.73,1.63,1.63,1.63
						c0.9,0,1.63-0.73,1.63-1.63C30.46,48.53,29.72,47.79,28.82,47.79z"/>
				</g>
				<g>
					<path class="st0" d="M40.14,80.4c-1.63,0-2.95-1.32-2.95-2.95c0-1.63,1.32-2.95,2.95-2.95c1.63,0,2.95,1.32,2.95,2.95
						C43.09,79.08,41.77,80.4,40.14,80.4z M40.14,75.82c-0.9,0-1.63,0.73-1.63,1.63c0,0.9,0.73,1.63,1.63,1.63
						c0.9,0,1.63-0.73,1.63-1.63C41.78,76.55,41.04,75.82,40.14,75.82z"/>
				</g>
				<g>
					<path class="st0" d="M20.8,84.52c-1.63,0-2.95-1.32-2.95-2.95c0-1.63,1.32-2.95,2.95-2.95c1.63,0,2.95,1.32,2.95,2.95
						C23.75,83.19,22.42,84.52,20.8,84.52z M20.8,79.93c-0.9,0-1.63,0.73-1.63,1.63c0,0.9,0.73,1.63,1.63,1.63
						c0.9,0,1.63-0.73,1.63-1.63C22.43,80.67,21.7,79.93,20.8,79.93z"/>
				</g>
				<g>
					<path class="st0" d="M23.09,64.12c-1.63,0-2.95-1.32-2.95-2.95c0-1.63,1.32-2.95,2.95-2.95c1.63,0,2.95,1.32,2.95,2.95
						C26.04,62.79,24.72,64.12,23.09,64.12z M23.09,59.53c-0.9,0-1.63,0.73-1.63,1.63c0,0.9,0.73,1.63,1.63,1.63
						c0.9,0,1.63-0.73,1.63-1.63C24.72,60.26,23.99,59.53,23.09,59.53z"/>
				</g>
				<g>
					<path class="st0" d="M40.14,72.92c-1.63,0-2.95-1.32-2.95-2.95s1.32-2.95,2.95-2.95c1.63,0,2.95,1.32,2.95,2.95
						S41.77,72.92,40.14,72.92z M40.14,68.33c-0.9,0-1.63,0.73-1.63,1.63c0,0.9,0.73,1.63,1.63,1.63c0.9,0,1.63-0.73,1.63-1.63
						C41.78,69.06,41.04,68.33,40.14,68.33z"/>
				</g>
				<g>
					<path class="st0" d="M35,86.81c-1.63,0-2.95-1.32-2.95-2.95c0-1.63,1.32-2.95,2.95-2.95c1.63,0,2.95,1.32,2.95,2.95
						C37.96,85.49,36.63,86.81,35,86.81z M35,82.23c-0.9,0-1.63,0.73-1.63,1.63c0,0.9,0.73,1.63,1.63,1.63
						c0.9,0,1.63-0.73,1.63-1.63C36.64,82.96,35.91,82.23,35,82.23z"/>
				</g>
				<g>
					<path class="st0" d="M32.71,29.15c-1.63,0-2.95-1.32-2.95-2.95c0-1.63,1.32-2.95,2.95-2.95c1.63,0,2.95,1.32,2.95,2.95
						C35.66,27.83,34.34,29.15,32.71,29.15z M32.71,24.56c-0.9,0-1.63,0.73-1.63,1.63c0,0.9,0.73,1.63,1.63,1.63
						c0.9,0,1.63-0.73,1.63-1.63C34.35,25.3,33.61,24.56,32.71,24.56z"/>
				</g>
				<g>
					<path class="st0" d="M2.95,37.39C1.32,37.39,0,36.06,0,34.44c0-1.63,1.32-2.95,2.95-2.95c1.63,0,2.95,1.32,2.95,2.95
						C5.9,36.06,4.58,37.39,2.95,37.39z M2.95,32.8c-0.9,0-1.63,0.73-1.63,1.63c0,0.9,0.73,1.63,1.63,1.63
						c0.9,0,1.63-0.73,1.63-1.63C4.58,33.53,3.85,32.8,2.95,32.8z"/>
				</g>
				<g>
					<path class="st0" d="M20.8,35.09c-1.63,0-2.95-1.32-2.95-2.95c0-1.63,1.32-2.95,2.95-2.95c1.63,0,2.95,1.32,2.95,2.95
						C23.75,33.77,22.42,35.09,20.8,35.09z M20.8,30.51c-0.9,0-1.63,0.73-1.63,1.63c0,0.9,0.73,1.63,1.63,1.63
						c0.9,0,1.63-0.73,1.63-1.63C22.43,31.24,21.7,30.51,20.8,30.51z"/>
				</g>
				<g>
					<path class="st0" d="M26.53,5.9c-1.63,0-2.95-1.32-2.95-2.95C23.58,1.32,24.9,0,26.53,0c1.63,0,2.95,1.32,2.95,2.95
						C29.48,4.58,28.16,5.9,26.53,5.9z M26.53,1.32c-0.9,0-1.63,0.73-1.63,1.63c0,0.9,0.73,1.63,1.63,1.63
						c0.9,0,1.63-0.73,1.63-1.63C28.16,2.05,27.43,1.32,26.53,1.32z"/>
				</g>
			</g>
			<g>
				<g>
					
						<rect x="35.92" y="80.46" transform="matrix(0.6225 -0.7826 0.7826 0.6225 -48.9833 60.0399)" class="st0" width="3.65" height="0.66"/>
				</g>
				<g>
					<rect x="39.81" y="72.26" class="st0" width="0.66" height="2.91"/>
				</g>
				<g>
					
						<rect x="42.14" y="67.59" transform="matrix(0.9612 -0.2758 0.2758 0.9612 -16.909 15.626)" class="st0" width="9.91" height="0.66"/>
				</g>
				<g>
					<rect x="53.67" y="48.13" class="st0" width="0.66" height="15.32"/>
				</g>
				<g>
					
						<rect x="47.93" y="37.86" transform="matrix(0.4902 -0.8716 0.8716 0.4902 -12.2792 63.6394)" class="st0" width="0.66" height="8.91"/>
				</g>
				<g>
					
						<rect x="37.43" y="26.65" transform="matrix(0.8145 -0.5801 0.5801 0.8145 -11.7893 27.9106)" class="st0" width="0.66" height="11.48"/>
				</g>
				<g>
					
						<rect x="29.83" y="4.64" transform="matrix(0.9654 -0.2607 0.2607 0.9654 -2.7217 8.36)" class="st0" width="0.66" height="19.61"/>
				</g>
				<g>
					
						<rect x="22.4" y="28.86" transform="matrix(0.8953 -0.4454 0.4454 0.8953 -10.2004 14.9761)" class="st0" width="8.73" height="0.66"/>
				</g>
				<g>
					
						<rect x="4.93" y="32.97" transform="matrix(0.9946 -0.104 0.104 0.9946 -3.3981 1.4005)" class="st0" width="13.62" height="0.66"/>
				</g>
				<g>
					
						<rect x="24.6" y="33.81" transform="matrix(0.911 -0.4124 0.4124 0.911 -14.6452 13.9182)" class="st0" width="0.66" height="14.18"/>
				</g>
				<g>
					
						<rect x="31.03" y="47.78" transform="matrix(0.9922 -0.1247 0.1247 0.9922 -5.6765 5.5539)" class="st0" width="20.97" height="0.66"/>
				</g>
				<g>
					
						<rect x="21.76" y="54.99" transform="matrix(0.4578 -0.8891 0.8891 0.4578 -35.0818 53.1164)" class="st0" width="8.49" height="0.66"/>
				</g>
				<g>
					
						<rect x="13.69" y="71.01" transform="matrix(0.1098 -0.994 0.994 0.1098 -51.6043 85.0482)" class="st0" width="15.98" height="0.66"/>
				</g>
			</g>
		</g>
		<circle class="st0" cx="54" cy="45.84" r="2.75"/>
		<path class="st0" d="M56.75,65.75c0-1.52-1.23-2.75-2.75-2.75c-1.52,0-2.75,1.23-2.75,2.75c0,1.52,1.23,2.75,2.75,2.75
			C55.52,68.5,56.75,67.27,56.75,65.75z"/>
		<path class="st0" d="M45.18,38.92c0-1.52-1.23-2.75-2.75-2.75c-1.52,0-2.75,1.23-2.75,2.75c0,1.52,1.23,2.75,2.75,2.75
			C43.95,41.67,45.18,40.44,45.18,38.92z"/>
		<circle class="st0" cx="28.82" cy="49.43" r="2.75"/>
		<circle class="st0" cx="40.14" cy="77.45" r="2.75"/>
		<circle class="st0" cx="20.8" cy="81.57" r="2.75"/>
		<path class="st0" d="M25.84,61.17c0-1.52-1.23-2.75-2.75-2.75c-1.52,0-2.75,1.23-2.75,2.75c0,1.52,1.23,2.75,2.75,2.75
			C24.61,63.92,25.84,62.69,25.84,61.17z"/>
		<path class="st0" d="M42.89,69.96c0-1.52-1.23-2.75-2.75-2.75c-1.52,0-2.75,1.23-2.75,2.75c0,1.52,1.23,2.75,2.75,2.75
			C41.66,72.72,42.89,71.48,42.89,69.96z"/>
		<circle class="st0" cx="35.01" cy="83.86" r="2.75"/>
		<circle class="st0" cx="32.71" cy="26.2" r="2.75"/>
		<circle class="st0" cx="2.95" cy="34.44" r="2.75"/>
		<circle class="st0" cx="20.8" cy="32.14" r="2.75"/>
		<circle class="st0" cx="26.53" cy="2.95" r="2.75"/>
		<g>
			
				<rect x="35.92" y="80.46" transform="matrix(0.6225 -0.7826 0.7826 0.6225 -48.9833 60.0399)" class="st0" width="3.65" height="0.66"/>
		</g>
		<g>
			<rect x="39.81" y="72.26" class="st0" width="0.66" height="2.91"/>
		</g>
		<g>
			
				<rect x="42.14" y="67.59" transform="matrix(0.9612 -0.2758 0.2758 0.9612 -16.909 15.626)" class="st0" width="9.91" height="0.66"/>
		</g>
		<g>
			<rect x="53.67" y="48.13" class="st0" width="0.66" height="15.32"/>
		</g>
		<g>
			
				<rect x="47.93" y="37.86" transform="matrix(0.4902 -0.8716 0.8716 0.4902 -12.2792 63.6394)" class="st0" width="0.66" height="8.91"/>
		</g>
		<g>
			
				<rect x="37.43" y="26.65" transform="matrix(0.8145 -0.5801 0.5801 0.8145 -11.7893 27.9106)" class="st0" width="0.66" height="11.48"/>
		</g>
		<g>
			
				<rect x="29.83" y="4.64" transform="matrix(0.9654 -0.2607 0.2607 0.9654 -2.7217 8.36)" class="st0" width="0.66" height="19.61"/>
		</g>
		<g>
			
				<rect x="22.4" y="28.86" transform="matrix(0.8953 -0.4454 0.4454 0.8953 -10.2004 14.9761)" class="st0" width="8.73" height="0.66"/>
		</g>
		<g>
			
				<rect x="4.93" y="32.97" transform="matrix(0.9946 -0.104 0.104 0.9946 -3.3981 1.4005)" class="st0" width="13.62" height="0.66"/>
		</g>
		<g>
			
				<rect x="24.6" y="33.81" transform="matrix(0.911 -0.4124 0.4124 0.911 -14.6452 13.9182)" class="st0" width="0.66" height="14.18"/>
		</g>
		<g>
			
				<rect x="31.03" y="47.78" transform="matrix(0.9922 -0.1247 0.1247 0.9922 -5.6765 5.5539)" class="st0" width="20.97" height="0.66"/>
		</g>
		<g>
			
				<rect x="21.76" y="54.99" transform="matrix(0.4578 -0.8891 0.8891 0.4578 -35.0818 53.1164)" class="st0" width="8.49" height="0.66"/>
		</g>
		<g>
			
				<rect x="13.69" y="71.01" transform="matrix(0.1098 -0.994 0.994 0.1098 -51.6043 85.0482)" class="st0" width="15.98" height="0.66"/>
		</g>
	</g>
</g>
</svg>
